<?xml version="1.0" standalone="no"?><!DOCTYPE svg PUBLIC "-//W3C//DTD SVG 1.1//EN" "http://www.w3.org/Graphics/SVG/1.1/DTD/svg11.dtd"><svg t="1620304329760" class="icon" viewBox="0 0 1026 1024" version="1.1" xmlns="http://www.w3.org/2000/svg" p-id="19913" xmlns:xlink="http://www.w3.org/1999/xlink" width="200.390625" height="200"><defs><style type="text/css"></style></defs><path d="M511.982672 601.818357h-315.060928a35.444354 35.444354 0 0 0-31.506092 34.656702 34.656702 34.656702 0 0 0 31.506092 33.081397h315.060928a36.232007 36.232007 0 0 0 22.054265-60.649228 30.71844 30.71844 0 0 0-22.054265-7.088871zM1006.628329 899.550934l-119.723153-118.147848a157.530464 157.530464 0 0 0-23.62957-135.476199 157.530464 157.530464 0 0 0-128.387328-64.58749 148.866288 148.866288 0 0 0-49.622096 9.451827 34.656702 34.656702 0 0 0-22.841917 23.62957 33.86905 33.86905 0 0 0 9.451828 31.506093l55.135662 55.135662a5.513566 5.513566 0 0 1 0 7.876523l-22.841917 22.841918h-3.938262l-55.923314-55.135663a33.86905 33.86905 0 0 0-55.135663 13.39009 152.80455 152.80455 0 0 0 37.807312 157.530464 157.530464 157.530464 0 0 0 157.530464 39.382615l119.723152 118.935501a60.649229 60.649229 0 0 0 42.533225 17.328351 62.224533 62.224533 0 0 0 42.533226-17.328351l22.841917-22.841918a60.649229 60.649229 0 0 0-5.513566-83.491145z m-38.594964 46.471486l-22.841917 22.841918a7.088871 7.088871 0 0 1-7.876524 0l-144.928026-141.777418-17.328351 7.088871a104.757758 104.757758 0 0 1-114.209587-22.054265 101.607149 101.607149 0 0 1-29.930788-69.313404l26.780179 26.780179a60.649229 60.649229 0 0 0 42.533225 17.328351 59.073924 59.073924 0 0 0 41.745573-17.328351l23.62957-22.841917a58.286272 58.286272 0 0 0 0-83.491146l-26.780179-26.780179a103.970106 103.970106 0 0 1 78.765232 45.683834 103.182454 103.182454 0 0 1 9.451828 97.668888l-7.876523 16.540699 144.928026 143.352722v3.938261a4.725914 4.725914 0 0 1 3.938262 2.362957z" p-id="19914"></path><path d="M474.175361 905.852152H150.450258a78.765232 78.765232 0 0 1-78.765232-78.765232V149.705926a78.765232 78.765232 0 0 1 78.765232-78.765232h624.608289a78.765232 78.765232 0 0 1 78.765232 78.765232v338.690497a37.019659 37.019659 0 1 0 74.039318 0V149.705926A148.866288 148.866288 0 0 0 775.058547 0.051985H150.450258A148.866288 148.866288 0 0 0 0.008665 149.705926v677.380994a148.078636 148.078636 0 0 0 150.441593 149.653941h323.725103a37.019659 37.019659 0 1 0 0-73.251666z" p-id="19915"></path><path d="M748.278368 252.100727a20.47896 20.47896 0 0 0-18.116003 0H196.921744a33.86905 33.86905 0 0 0 0 67.7381h534.028273a33.86905 33.86905 0 0 0 30.71844-33.86905 37.019659 37.019659 0 0 0-13.390089-33.86905zM730.950017 425.384237H196.921744a34.656702 34.656702 0 0 0 0 69.313405h534.028273a34.656702 34.656702 0 0 0 0-69.313405z" p-id="19916"></path></svg>