<?xml version="1.0" standalone="no"?><!DOCTYPE svg PUBLIC "-//W3C//DTD SVG 1.1//EN" "http://www.w3.org/Graphics/SVG/1.1/DTD/svg11.dtd"><svg t="1620303979505" class="icon" viewBox="0 0 1024 1024" version="1.1" xmlns="http://www.w3.org/2000/svg" p-id="16959" xmlns:xlink="http://www.w3.org/1999/xlink" width="200" height="200"><defs><style type="text/css"></style></defs><path d="M525.1584 921.6a283.35104 283.35104 0 0 0 55.296 51.2H145.05984A93.02016 93.02016 0 0 1 51.2 880.64V143.36a93.02016 93.02016 0 0 1 93.85984-92.16h682.6752A93.02528 93.02528 0 0 1 921.6 143.36v381.7984A281.79456 281.79456 0 0 0 870.4 491.52V324.27008H102.4v555.52A42.24 42.24 0 0 0 145.05984 921.6h380.09856zM870.4 273.06496v-128.8704A42.24 42.24 0 0 0 827.73504 102.4H145.05984A42.24 42.24 0 0 0 102.4 144.19456v128.8704h768z m-358.4-51.2a34.13504 34.13504 0 1 1 34.12992-34.13504A34.12992 34.12992 0 0 1 512 221.86496z m119.46496 0A34.13504 34.13504 0 1 1 665.6 187.72992a34.12992 34.12992 0 0 1-34.13504 34.13504z m119.47008 0a34.13504 34.13504 0 1 1 34.12992-34.13504 34.12992 34.12992 0 0 1-34.12992 34.13504z m-301.5168 219.4176L302.592 569.088a30.13632 30.13632 0 0 1-41.93792 0l-59.68384-51.77856a28.00128 28.00128 0 0 1-3.23584-38.83008v-1.61792a25.91232 25.91232 0 0 1 37.12-3.24608l46.77632 40.448 135.51616-116.47488h1.61792a27.648 27.648 0 0 1 37.12 4.864c8.04352 12.93312 6.43584 30.72-6.46656 38.83008z m-3.65056 224.55808l-146.816 127.81568a30.13632 30.13632 0 0 1-41.92768 0L197.32992 741.888a28.00128 28.00128 0 0 1-3.2512-38.83008V701.44a25.92768 25.92768 0 0 1 37.12512-3.24608l46.78144 40.4736 135.52128-116.50048h1.60768a27.61728 27.61728 0 0 1 37.12 4.864c8.05376 12.93312 6.44096 30.72-6.46656 38.82496zM742.4 972.8a230.4 230.4 0 1 1 230.4-230.4 230.4 230.4 0 0 1-230.4 230.4z m0-51.2a179.2 179.2 0 1 0-179.2-179.2 179.2 179.2 0 0 0 179.2 179.2z m-8.704-170.20928l93.952-1.30048a25.2416 25.2416 0 1 1 0.88576 50.47296l-119.74144 1.65376a27.83232 27.83232 0 0 1-26.112-27.51488v-117.71904a25.51296 25.51296 0 1 1 51.02592 0v94.4128z m0 0" p-id="16960"></path></svg>