<?xml version="1.0" standalone="no"?><!DOCTYPE svg PUBLIC "-//W3C//DTD SVG 1.1//EN" "http://www.w3.org/Graphics/SVG/1.1/DTD/svg11.dtd"><svg t="1620305171328" class="icon" viewBox="0 0 1024 1024" version="1.1" xmlns="http://www.w3.org/2000/svg" p-id="25695" xmlns:xlink="http://www.w3.org/1999/xlink" width="200" height="200"><defs><style type="text/css"></style></defs><path d="M68.279591 68.242286v170.642285a34.084571 34.084571 0 0 1-68.242286 0v-204.8C0.037305 15.286857 15.324163 0 34.121877 0h204.873143a34.084571 34.084571 0 0 1 0 68.169143H68.206448l0.073143 0.073143zM1013.943591 10.020571a34.011429 34.011429 0 0 1 10.093714 24.137143v204.8a34.157714 34.157714 0 1 1-68.315428 0V68.315429h-170.642286a34.157714 34.157714 0 1 1 0-68.315429h204.8c8.996571 0 17.700571 3.584 24.064 10.020571zM68.279591 955.684571h170.715429a34.084571 34.084571 0 0 1 0 68.242286H34.121877A34.084571 34.084571 0 0 1 0.037305 989.842286v-204.8a34.157714 34.157714 0 0 1 68.242286 0v170.642285z m945.664 58.221715a33.572571 33.572571 0 0 1-24.064 10.020571h-204.8a34.084571 34.084571 0 0 1 0-68.169143h170.642286v-170.715428a34.084571 34.084571 0 0 1 68.242286 0v204.8a33.865143 33.865143 0 0 1-10.020572 24.064z m-809.033143-228.937143H819.237305a34.157714 34.157714 0 1 1 0 68.315428H204.837305a34.157714 34.157714 0 1 1 0-68.242285l0.073143-0.073143z m0-136.411429H819.237305a34.011429 34.011429 0 1 1 0 68.169143H204.837305a34.084571 34.084571 0 1 1 0-68.169143h0.073143z m409.453715-170.642285h204.8a34.157714 34.157714 0 1 1 0 68.315428h-204.8a34.157714 34.157714 0 1 1 0-68.315428z m0-136.484572h204.8a34.157714 34.157714 0 1 1 0 68.242286h-204.8a34.084571 34.084571 0 0 1 0-68.242286z m0-136.484571h204.8a34.084571 34.084571 0 1 1 0 68.169143h-204.8a34.084571 34.084571 0 1 1 0-68.169143zM307.237305 511.926857V238.957714h-68.242285v34.084572a34.157714 34.157714 0 1 1-68.315429 0V204.8a34.011429 34.011429 0 0 1 34.011429-34.157714h273.188571c18.870857 0 34.084571 15.286857 34.084572 34.084571v68.315429a34.084571 34.084571 0 1 1-68.242286 0v-34.084572h-68.242286v272.969143H409.637305a34.157714 34.157714 0 0 1 0 68.315429H273.152734a34.157714 34.157714 0 1 1 0-68.315429H307.237305z" fill="#707070" p-id="25696"></path></svg>