<?xml version="1.0" standalone="no"?><!DOCTYPE svg PUBLIC "-//W3C//DTD SVG 1.1//EN" "http://www.w3.org/Graphics/SVG/1.1/DTD/svg11.dtd"><svg t="1620303813954" class="icon" viewBox="0 0 1024 1024" version="1.1" xmlns="http://www.w3.org/2000/svg" p-id="14491" xmlns:xlink="http://www.w3.org/1999/xlink" width="200" height="200"><defs><style type="text/css"></style></defs><path d="M940.120577 676.851027a250.519878 250.519878 0 0 0-130.628222-134.207078 238.888598 238.888598 0 0 0-95.287025-19.683704 242.91481 242.91481 0 0 0-95.734382 19.683704 257.677588 257.677588 0 0 0-77.840105 53.682831 243.809524 243.809524 0 0 0-52.34076 79.629533 250.967235 250.967235 0 0 0 130.180865 327.465268 242.91481 242.91481 0 0 0 95.734382 19.683705 238.888598 238.888598 0 0 0 95.287025-19.683705 245.151595 245.151595 0 0 0 77.840105-53.68283 248.283093 248.283093 0 0 0 52.788117-79.182176 255.888161 255.888161 0 0 0 0-194.600262m-225.915247 288.992573a191.916121 191.916121 0 1 1 188.337265-191.916121 190.57405 190.57405 0 0 1-188.337265 191.916121" p-id="14492"></path><path d="M752.230668 268.414155H233.743993A31.762342 31.762342 0 0 1 198.850153 236.651813a32.209699 32.209699 0 0 1 33.999126-33.999126h519.381389a32.209699 32.209699 0 0 1 33.55177 33.999126 31.762342 31.762342 0 0 1-33.55177 33.551769z m-158.811708 203.100043h-357.885539a33.999126 33.999126 0 1 1 0-67.550895h357.885539a33.999126 33.999126 0 1 1 0 67.550895z m-247.388379 204.442115H233.743993a33.999126 33.999126 0 1 1 0-67.550896h112.286588a33.999126 33.999126 0 1 1 0 67.550896z" p-id="14493"></path><path d="M842.14941 0H166.193097A104.234163 104.234163 0 0 0 64.643076 101.550022V912.608126a104.234163 104.234163 0 0 0 101.550021 101.550022h194.600263a33.999126 33.999126 0 0 0 0-67.998253H166.193097a32.209699 32.209699 0 0 1-33.999126-33.999126V101.550022a34.446483 34.446483 0 0 1 10.289209-25.499345 33.999126 33.999126 0 0 1 23.709917-8.499781h675.956313a33.551769 33.551769 0 0 1 23.26256 8.499781 32.657055 32.657055 0 0 1 10.28921 25.499345v352.069899a33.999126 33.999126 0 0 0 67.998252 0V101.550022A104.68152 104.68152 0 0 0 842.14941 0z" p-id="14494"></path><path d="M813.965924 834.768021a137.338576 137.338576 0 0 0-44.735692-30.867628 89.471385 89.471385 0 0 0 37.577981-73.813892A91.70817 91.70817 0 1 0 659.627785 805.242464a147.180428 147.180428 0 0 0-44.735692 30.867628 140.917431 140.917431 0 0 0-41.156837 99.760594 19.236348 19.236348 0 0 0 38.025338 0 103.33945 103.33945 0 1 1 206.678899 0 19.236348 19.236348 0 0 0 38.025339 0 139.57536 139.57536 0 0 0-41.604194-99.760594z m-99.760594-158.364351a53.682831 53.682831 0 1 1-53.682831 53.682831 53.682831 53.682831 0 0 1 53.682831-53.682831z" p-id="14495"></path></svg>