<?xml version="1.0" standalone="no"?><!DOCTYPE svg PUBLIC "-//W3C//DTD SVG 1.1//EN" "http://www.w3.org/Graphics/SVG/1.1/DTD/svg11.dtd"><svg t="1627460791560" class="icon" viewBox="0 0 1024 1024" version="1.1" xmlns="http://www.w3.org/2000/svg" p-id="9326" xmlns:xlink="http://www.w3.org/1999/xlink" width="200" height="200"><defs><style type="text/css">@font-face { font-family: feedback-iconfont; src: url("//at.alicdn.com/t/font_1031158_1uhr8ri0pk5.eot?#iefix") format("embedded-opentype"), url("//at.alicdn.com/t/font_1031158_1uhr8ri0pk5.woff2") format("woff2"), url("//at.alicdn.com/t/font_1031158_1uhr8ri0pk5.woff") format("woff"), url("//at.alicdn.com/t/font_1031158_1uhr8ri0pk5.ttf") format("truetype"), url("//at.alicdn.com/t/font_1031158_1uhr8ri0pk5.svg#iconfont") format("svg"); }
</style></defs><path d="M292.571429 0a146.285714 146.285714 0 0 1 146.285714 146.285714v731.428572a146.285714 146.285714 0 0 1-146.285714 146.285714H146.285714a146.285714 146.285714 0 0 1-146.285714-146.285714V146.285714a146.285714 146.285714 0 0 1 146.285714-146.285714h146.285715z m0 73.142857H146.285714a73.142857 73.142857 0 0 0-72.630857 64.585143L73.142857 146.285714v731.428572a73.142857 73.142857 0 0 0 64.585143 72.630857L146.285714 950.857143h146.285715a73.142857 73.142857 0 0 0 72.630857-64.585143L365.714286 877.714286V146.285714a73.142857 73.142857 0 0 0-64.585143-72.630857L292.571429 73.142857zM877.714286 585.142857a146.285714 146.285714 0 0 1 146.285714 146.285714v146.285715a146.285714 146.285714 0 0 1-146.285714 146.285714h-146.285715a146.285714 146.285714 0 0 1-146.285714-146.285714v-146.285715a146.285714 146.285714 0 0 1 146.285714-146.285714h146.285715z m0 73.142857h-146.285715a73.142857 73.142857 0 0 0-72.630857 64.585143L658.285714 731.428571v146.285715a73.142857 73.142857 0 0 0 64.585143 72.630857L731.428571 950.857143h146.285715a73.142857 73.142857 0 0 0 72.630857-64.585143L950.857143 877.714286v-146.285715a73.142857 73.142857 0 0 0-64.585143-72.630857L877.714286 658.285714zM877.714286 0a146.285714 146.285714 0 0 1 146.285714 146.285714v146.285715a146.285714 146.285714 0 0 1-146.285714 146.285714h-146.285715a146.285714 146.285714 0 0 1-146.285714-146.285714V146.285714a146.285714 146.285714 0 0 1 146.285714-146.285714h146.285715z m0 73.142857h-146.285715a73.142857 73.142857 0 0 0-72.630857 64.585143L658.285714 146.285714v146.285715a73.142857 73.142857 0 0 0 64.585143 72.630857L731.428571 365.714286h146.285715a73.142857 73.142857 0 0 0 72.630857-64.585143L950.857143 292.571429V146.285714a73.142857 73.142857 0 0 0-64.585143-72.630857L877.714286 73.142857z" fill="#979797" p-id="9327"></path><path d="M877.714286 73.142857h-146.285715a73.142857 73.142857 0 0 0-72.630857 64.585143L658.285714 146.285714v146.285715a73.142857 73.142857 0 0 0 64.585143 72.630857L731.428571 365.714286h146.285715a73.142857 73.142857 0 0 0 72.630857-64.585143L950.857143 292.571429V146.285714a73.142857 73.142857 0 0 0-64.585143-72.630857L877.714286 73.142857z" fill="#D8D8D8" p-id="9328"></path></svg>