<?xml version="1.0" standalone="no"?><!DOCTYPE svg PUBLIC "-//W3C//DTD SVG 1.1//EN" "http://www.w3.org/Graphics/SVG/1.1/DTD/svg11.dtd"><svg t="1627460372370" class="icon" viewBox="0 0 1024 1024" version="1.1" xmlns="http://www.w3.org/2000/svg" p-id="48795" xmlns:xlink="http://www.w3.org/1999/xlink" width="200" height="200"><defs><style type="text/css">@font-face { font-family: feedback-iconfont; src: url("//at.alicdn.com/t/font_1031158_1uhr8ri0pk5.eot?#iefix") format("embedded-opentype"), url("//at.alicdn.com/t/font_1031158_1uhr8ri0pk5.woff2") format("woff2"), url("//at.alicdn.com/t/font_1031158_1uhr8ri0pk5.woff") format("woff"), url("//at.alicdn.com/t/font_1031158_1uhr8ri0pk5.ttf") format("truetype"), url("//at.alicdn.com/t/font_1031158_1uhr8ri0pk5.svg#iconfont") format("svg"); }
</style></defs><path d="M544 132.672a64 64 0 0 0-48.064 0l-318.72 129.152c-53.312 21.568-53.312 97.024 0 118.592l318.72 129.152a64 64 0 0 0 48 0l318.72-129.152c53.312-21.568 53.312-97.024 0-118.592L544 132.672z m294.656 188.48l-318.72 129.088-318.72-129.088L520 192l318.72 129.152z" p-id="48796"></path><path d="M157.44 551.424a32 32 0 0 1 24.96-58.944l338.176 142.72 338.24-142.72a32 32 0 0 1 24.896 58.88l-350.208 147.84a31.872 31.872 0 0 1-25.536 0.192L157.568 551.424z" p-id="48797"></path><path d="M157.44 743.424a32 32 0 1 1 24.96-58.944l338.176 142.72 338.24-142.72a32 32 0 0 1 24.896 58.88l-350.208 147.84a31.872 31.872 0 0 1-25.536 0.192l-350.464-147.968z" p-id="48798"></path></svg>