<?xml version="1.0" standalone="no"?><!DOCTYPE svg PUBLIC "-//W3C//DTD SVG 1.1//EN" "http://www.w3.org/Graphics/SVG/1.1/DTD/svg11.dtd"><svg t="1620304175711" class="icon" viewBox="0 0 1024 1024" version="1.1" xmlns="http://www.w3.org/2000/svg" p-id="18858" xmlns:xlink="http://www.w3.org/1999/xlink" width="200" height="200"><defs><style type="text/css"></style></defs><path d="M784 864a16 16 0 0 1 16 16v32a16 16 0 0 1-16 16H240a16 16 0 0 1-16-16v-32a16 16 0 0 1 16-16h544z m112-768a64 64 0 0 1 64 64v544a64 64 0 0 1-64 64H128a64 64 0 0 1-64-64V160a64 64 0 0 1 64-64h768z m0 64H128v544h768V160z m-458.608 38.8l98.736 312.656L589.168 416H832v64H626.816l-106.944 192.528-93.28-295.344L372.608 496H192v-64h139.392l106-233.2z" p-id="18859"></path></svg>