<?xml version="1.0" standalone="no"?><!DOCTYPE svg PUBLIC "-//W3C//DTD SVG 1.1//EN" "http://www.w3.org/Graphics/SVG/1.1/DTD/svg11.dtd"><svg t="1620304054250" class="icon" viewBox="0 0 1157 1024" version="1.1" xmlns="http://www.w3.org/2000/svg" p-id="18308" xmlns:xlink="http://www.w3.org/1999/xlink" width="225.9765625" height="200"><defs><style type="text/css"></style></defs><path d="M582.98837088 8C268.94597285 8 13.33333333 263.54880969 13.33333333 577.65503755a569.60397408 569.60397408 0 0 0 194.54032927 428.69340576 39.30636347 39.30636347 0 0 0 51.86805946-59.0297587 516.11463914 516.11463914 0 0 1-23.93615798-22.40424408 493.91464992 493.91464992 0 0 1-57.03826964-68.47656145l34.40423798-19.85105391a39.32040656 39.32040656 0 0 0-39.31912982-68.10634983l-34.46806782 19.96594721c-3.07659417-6.48510286-6.06382678-13.03403653-8.87233626-19.6723298a493.00826695 493.00826695 0 0 1 0-382.12321612c2.79574312-6.59999714 5.77021036-13.11063173 8.83403817-19.55743651l34.4680688 19.83828755a39.32040656 39.32040656 0 0 0 39.31912884-68.10634884l-34.26381295-20.01701166a492.33167156 492.33167156 0 0 1 213.06372511-173.61693562 485.75720714 485.75720714 0 0 1 151.73609554-36.85530122v39.67657608a39.31912983 39.31912983 0 1 0 78.63825868 0V88.32336495A484.39125 484.39125 0 0 1 774.04359625 125.19143155a490.04656608 490.04656608 0 0 1 156.17864588 105.2807992 495.31890417 495.31890417 0 0 1 57.07656773 68.51485955l-34.46806781 19.78722407a39.31912983 39.31912983 0 0 0 9.47233547 72.03826252 39.57444816 39.57444816 0 0 0 10.21276069 1.36595714 38.94891722 38.94891722 0 0 0 19.60850095-5.28510445l34.58296209-19.71062789c3.03829608 6.38297592 5.98723059 12.86807878 8.75744199 19.42977684a493.12316025 493.12316025 0 0 1 0 382.11044977 454.18700939 454.18700939 0 0 1-8.9361661 19.6595654l-34.46806781-19.95318183a39.32295905 39.32295905 0 1 0-39.30636347 68.11911521l34.35317452 19.889352a494.56571358 494.56571358 0 0 1-56.88507825 68.42549798c-7.65957052 7.65957052-15.71488537 15.178716-23.93615799 22.40424408a39.21700191 39.21700191 0 0 0 25.8765826 68.73188077 39.29359809 39.29359809 0 0 0 25.99147687-9.6510586 569.62950581 569.62950581 0 0 0 194.48926481-428.69340576C1152.64340842 263.54880969 897.09459874 8 582.98837088 8z" p-id="18309"></path><path d="M392.57144378 297.04666569a39.3318952 39.3318952 0 0 0-68.93613562 37.79998129l273.06369464 498.31890314a39.29998078 39.29998078 0 0 0 68.93613562-37.76168418z" p-id="18310"></path></svg>