<?xml version="1.0" standalone="no"?><!DOCTYPE svg PUBLIC "-//W3C//DTD SVG 1.1//EN" "http://www.w3.org/Graphics/SVG/1.1/DTD/svg11.dtd"><svg t="1620304362327" class="icon" viewBox="0 0 1024 1024" version="1.1" xmlns="http://www.w3.org/2000/svg" p-id="22413" xmlns:xlink="http://www.w3.org/1999/xlink" width="200" height="200"><defs><style type="text/css"></style></defs><path d="M836.494222 783.815111H187.505778c-54.613333 0-98.986667-44.373333-98.986667-98.986667V212.764444c0-54.613333 44.373333-98.986667 98.986667-98.986666h649.102222c54.613333 0 98.986667 44.373333 98.986667 98.986666v472.177778a99.214222 99.214222 0 0 1-99.100445 98.872889zM187.505778 176.924444a35.84 35.84 0 0 0-35.84 35.783112v472.177777a35.84 35.84 0 0 0 35.84 35.783111h649.102222a35.84 35.84 0 0 0 35.84-35.783111v-472.177777a35.84 35.84 0 0 0-35.84-35.783112H187.562667z m747.975111 690.232889H88.519111a31.630222 31.630222 0 0 0 0 63.260445h846.961778a31.630222 31.630222 0 0 0 0-63.260445z m-183.523556-278.755555h-214.471111a31.630222 31.630222 0 0 0 0 63.260444h214.471111a31.630222 31.630222 0 0 0 0-63.260444z m-311.751111-333.824a31.459556 31.459556 0 0 0-22.414222 9.216L248.035556 433.720889a31.573333 31.573333 0 0 0 0 44.771555l169.927111 169.927112a31.459556 31.459556 0 0 0 22.357333 9.216 31.573333 31.573333 0 0 0 22.357333-53.987556L315.050667 456.135111 462.506667 308.565333a31.573333 31.573333 0 0 0-22.357334-53.930666z" p-id="22414"></path></svg>