<?xml version="1.0" standalone="no"?><!DOCTYPE svg PUBLIC "-//W3C//DTD SVG 1.1//EN" "http://www.w3.org/Graphics/SVG/1.1/DTD/svg11.dtd"><svg t="1620303291171" class="icon" viewBox="0 0 1024 1024" version="1.1" xmlns="http://www.w3.org/2000/svg" p-id="9326" xmlns:xlink="http://www.w3.org/1999/xlink" width="200" height="200"><defs><style type="text/css"></style></defs><path d="M832 96A96 96 0 0 1 928 192v640a96 96 0 0 1-96 96H192A96 96 0 0 1 96 832V192A96 96 0 0 1 192 96z m0 64H192a32 32 0 0 0-32 32v640a32 32 0 0 0 32 32h640a32 32 0 0 0 32-32V192a32 32 0 0 0-32-32z m-192 467.2c32.192 0 59.776 19.84 71.232 48H780.8v57.6l-69.632 0.064a76.928 76.928 0 0 1-142.336 0L243.2 732.8v-57.6h325.568c11.456-28.16 39.04-48 71.232-48z m0 57.6a19.2 19.2 0 1 0 0 38.4 19.2 19.2 0 0 0 0-38.4zM512 435.2c32.192 0 59.776 19.84 71.232 48H780.8v57.6l-197.632 0.064a76.928 76.928 0 0 1-142.336 0L243.2 540.8v-57.6h197.568c11.456-28.16 39.04-48 71.232-48z m0 57.6a19.2 19.2 0 0 0-19.2 19.2 19.2 19.2 0 0 0 19.2 19.2 19.2 19.2 0 0 0 19.2-19.2 19.2 19.2 0 0 0-19.2-19.2zM384 243.2c32.192 0 59.776 19.84 71.232 48H780.8v57.6l-325.632 0.064a76.928 76.928 0 0 1-142.336 0L243.2 348.8v-57.6h69.568c11.456-28.16 39.04-48 71.232-48z m0 57.6a19.2 19.2 0 0 0-19.2 19.2 19.2 19.2 0 0 0 19.2 19.2 19.2 19.2 0 0 0 19.2-19.2 19.2 19.2 0 0 0-19.2-19.2z" p-id="9327"></path></svg>