<?xml version="1.0" standalone="no"?><!DOCTYPE svg PUBLIC "-//W3C//DTD SVG 1.1//EN" "http://www.w3.org/Graphics/SVG/1.1/DTD/svg11.dtd"><svg t="1620294228681" class="icon" viewBox="0 0 1024 1024" version="1.1" xmlns="http://www.w3.org/2000/svg" p-id="39698" xmlns:xlink="http://www.w3.org/1999/xlink" width="200" height="200"><defs><style type="text/css"></style></defs><path d="M467.6608 572.8256H352.8704v-89.8048c74.6496-10.0352 132.1984-73.9328 132.1984-151.2448 0-84.2752-68.3008-152.6784-152.6784-152.6784S179.712 247.5008 179.712 331.776c0 77.312 57.5488 141.312 132.1984 151.2448v89.8048H197.0176c-11.264 0-20.48 9.216-20.48 20.48s9.216 20.48 20.48 20.48h114.8928v210.6368c0 11.264 9.216 20.48 20.48 20.48s20.48-9.216 20.48-20.48V613.7856h114.8928c11.264 0 20.48-9.216 20.48-20.48-0.1024-11.264-9.3184-20.48-20.5824-20.48zM332.3904 443.4944c-29.7984 0-57.856-11.5712-78.9504-32.6656s-32.6656-49.152-32.6656-78.9504c0-29.7984 11.5712-57.856 32.6656-78.9504s49.152-32.6656 78.9504-32.6656 57.856 11.5712 78.9504 32.6656 32.6656 49.152 32.6656 78.9504c0 29.7984-11.5712 57.856-32.6656 78.9504s-49.152 32.6656-78.9504 32.6656zM715.1616 540.8768v-291.84l93.696 93.696c7.9872 7.9872 20.992 7.9872 28.9792 0 7.9872-7.9872 7.9872-20.992 0-28.9792L710.144 185.9584c-0.3072-0.3072-0.512-0.6144-0.8192-0.9216-3.9936-3.9936-9.216-5.9392-14.5408-5.9392h-0.6144c-0.512 0-1.024 0-1.536 0.1024-0.3072 0-0.7168 0.1024-1.024 0.1024-0.3072 0-0.6144 0.1024-0.9216 0.1024-0.3072 0.1024-0.6144 0.1024-0.9216 0.2048-0.4096 0.1024-0.7168 0.2048-1.1264 0.3072-0.2048 0.1024-0.4096 0.1024-0.6144 0.2048-0.512 0.2048-0.9216 0.3072-1.3312 0.512-0.1024 0-0.1024 0.1024-0.2048 0.1024-2.3552 1.024-4.5056 2.4576-6.3488 4.3008-0.3072 0.3072-0.512 0.6144-0.8192 0.9216L551.7312 313.6512c-7.9872 7.9872-7.9872 20.992 0 28.9792 7.9872 7.9872 20.992 7.9872 28.9792 0l93.4912-93.4912v291.84c-74.5472 10.0352-132.096 73.9328-132.096 151.2448 0 84.2752 68.3008 152.6784 152.6784 152.6784S847.4624 776.4992 847.4624 692.224c0-77.4144-57.5488-141.312-132.3008-151.3472z m58.5728 230.2976c-21.0944 21.0944-49.152 32.6656-78.9504 32.6656-29.7984 0-57.856-11.5712-78.9504-32.6656s-32.6656-49.152-32.6656-78.9504 11.5712-57.856 32.6656-78.9504 49.152-32.6656 78.9504-32.6656c29.7984 0 57.856 11.5712 78.9504 32.6656 21.0944 21.0944 32.6656 49.152 32.6656 78.9504s-11.4688 57.856-32.6656 78.9504z" p-id="39699"></path></svg>