<?xml version="1.0" standalone="no"?><!DOCTYPE svg PUBLIC "-//W3C//DTD SVG 1.1//EN" "http://www.w3.org/Graphics/SVG/1.1/DTD/svg11.dtd"><svg t="1620303332605" class="icon" viewBox="0 0 1044 1024" version="1.1" xmlns="http://www.w3.org/2000/svg" p-id="10885" xmlns:xlink="http://www.w3.org/1999/xlink" width="203.90625" height="200"><defs><style type="text/css"></style></defs><path d="M918.591793 445.067114a31.107461 31.107461 0 0 1-31.10746-31.165067V62.698815a6.809078 6.809078 0 0 0-2.304257-0.380202H139.879882a6.912769 6.912769 0 0 0-2.304257 0.380202v212.337223a31.107461 31.107461 0 0 1-62.318613 0V60.210218C75.257012 27.005884 104.244557 0 139.879882 0h745.242588c35.635324 0 64.634391 27.005884 64.63439 60.210218v353.70335a31.107461 31.107461 0 0 1-31.165067 31.153546zM106.410558 626.919025a31.107461 31.107461 0 0 1-31.107461-31.107461V429.202309a31.107461 31.107461 0 0 1 62.318613 0v166.551649a31.107461 31.107461 0 0 1-31.211152 31.165067zM885.12247 1024H139.879882c-35.635324 0-64.622869-27.017406-64.62287-60.22174v-204.733176a31.107461 31.107461 0 1 1 62.318613 0v202.244579a6.590173 6.590173 0 0 0 2.304257 0.380203h745.242588a6.532567 6.532567 0 0 0 2.304256-0.380203V610.270773a31.107461 31.107461 0 0 1 62.330134 0v353.507487c0 33.204334-28.999066 60.22174-64.63439 60.22174zM181.667571 386.458353H31.165067a31.107461 31.107461 0 1 1 0-62.318612h150.502504a31.107461 31.107461 0 1 1 0 62.318612zM181.667571 706.358262H31.165067a31.107461 31.107461 0 1 1 0-62.318613h150.502504a31.107461 31.107461 0 1 1 0 62.318613z" p-id="10886"></path><path d="M627.529653 322.791751h-309.115989a31.107461 31.107461 0 0 1 0-62.318613h309.115989a31.107461 31.107461 0 0 1 0 62.318613zM627.529653 543.078658h-309.115989a31.165067 31.165067 0 0 1 0-62.330135h309.115989a31.165067 31.165067 0 0 1 0 62.330135zM627.529653 763.354043h-309.115989a31.107461 31.107461 0 0 1 0-62.318613h309.115989a31.107461 31.107461 0 0 1 0 62.318613zM915.043239 641.424318a129.34943 129.34943 0 1 1 129.34943-129.337908 129.487686 129.487686 0 0 1-129.34943 129.337908z m0-196.357204a67.019296 67.019296 0 1 0 67.030817 67.019296 67.088424 67.088424 0 0 0-67.030817-67.019296z" p-id="10887"></path></svg>