<?xml version="1.0" standalone="no"?><!DOCTYPE svg PUBLIC "-//W3C//DTD SVG 1.1//EN" "http://www.w3.org/Graphics/SVG/1.1/DTD/svg11.dtd"><svg t="1620301657899" class="icon" viewBox="0 0 1024 1024" version="1.1" xmlns="http://www.w3.org/2000/svg" p-id="6586" xmlns:xlink="http://www.w3.org/1999/xlink" width="200" height="200"><defs><style type="text/css"></style></defs><path d="M128 194.474667A108.714667 108.714667 0 0 1 236.288 85.333333h551.424A108.714667 108.714667 0 0 1 896 194.474667v635.050666A108.714667 108.714667 0 0 1 787.712 938.666667H236.288A108.714667 108.714667 0 0 1 128 829.525333V194.474667z m108.288-49.621334c-27.178667 0-49.194667 22.229333-49.194667 49.621334v635.050666c0 27.392 22.016 49.621333 49.194667 49.621334h551.424c27.178667 0 49.194667-22.186667 49.194667-49.621334V194.474667c0-27.392-22.016-49.621333-49.194667-49.621334H236.288z m186.197333 190.677334c-14.890667-44.970667 18.346667-91.434667 65.408-91.434667h48.213334c47.061333 0 80.298667 46.464 65.408 91.434667l-18.986667 57.386666 67.968 205.482667c8.234667 24.96 1.792 52.48-16.64 71.082667l-73.130667 73.642666a68.565333 68.565333 0 0 1-97.450666 0l-73.088-73.642666a69.845333 69.845333 0 0 1-16.64-71.082667l67.925333-205.482667-18.986667-57.386666z m71.424 87.168l-64.341333 194.517333a9.984 9.984 0 0 0 2.389333 10.154667l73.088 73.642666c3.84 3.882667 10.069333 3.882667 13.909334 0l73.088-73.642666a9.984 9.984 0 0 0 2.389333-10.154667l-64.341333-194.517333h-36.181334z m36.181334-59.52l15.36-46.506667a9.898667 9.898667 0 0 0-9.344-13.056h-48.213334a9.898667 9.898667 0 0 0-9.386666 13.056l15.36 46.506667h36.266666z" p-id="6587"></path></svg>