<?xml version="1.0" standalone="no"?><!DOCTYPE svg PUBLIC "-//W3C//DTD SVG 1.1//EN" "http://www.w3.org/Graphics/SVG/1.1/DTD/svg11.dtd"><svg t="1620303053684" class="icon" viewBox="0 0 1024 1024" version="1.1" xmlns="http://www.w3.org/2000/svg" p-id="11751" xmlns:xlink="http://www.w3.org/1999/xlink" width="200" height="200"><defs><style type="text/css"></style></defs><path d="M87.7 510.8c-12.7 0-23-10.3-23-23v-162c0-54.5 44.3-98.8 98.8-98.8h167.3c12.7 0 23 10.3 23 23s-10.3 23-23 23H163.5c-29.1 0-52.8 23.7-52.8 52.8v161.9c0 12.8-10.3 23.1-23 23.1zM322.7 959.5H163.5c-54.5 0-98.8-44.3-98.8-98.8v-155c0-12.7 10.3-23 23-23s23 10.3 23 23v155c0 29.1 23.7 52.8 52.8 52.8h159.2c12.7 0 23 10.3 23 23s-10.3 23-23 23zM697.2 959.5H536.3c-12.7 0-23-10.3-23-23s10.3-23 23-23h160.9c29.1 0 52.8-23.7 52.8-52.8V698c0-12.7 10.3-23 23-23s23 10.3 23 23v162.7c0 54.5-44.3 98.8-98.8 98.8zM773 519.2c-12.7 0-23-10.3-23-23V325.8c0-29.1-23.7-52.8-52.8-52.8H527.8c-12.7 0-23-10.3-23-23s10.3-23 23-23h169.4c54.5 0 98.8 44.3 98.8 98.8v170.3c0 12.8-10.3 23.1-23 23.1z" p-id="11752"></path><path d="M527.8 273c-12.7 0-23-10.3-23-23v-64.4c0-41.6-33.9-75.5-75.5-75.5s-75.5 33.9-75.5 75.5V250c0 12.7-10.3 23-23 23s-23-10.3-23-23v-64.4c0-67 54.5-121.5 121.5-121.5s121.5 54.5 121.5 121.5V250c0 12.7-10.3 23-23 23zM142.4 728.7H87.7c-12.7 0-23-10.3-23-23s10.3-23 23-23h54.7c47.4 0 86-38.6 86-86s-38.6-86-86-86H87.7c-12.7 0-23-10.3-23-23s10.3-23 23-23h54.7c72.8 0 132 59.2 132 132-0.1 72.8-59.3 132-132 132zM536.3 959.5c-12.7 0-23-10.3-23-23v-59.7c0-46.2-37.6-83.8-83.8-83.8-46.2 0-83.8 37.6-83.8 83.8v59.7c0 12.7-10.3 23-23 23s-23-10.3-23-23v-59.7c0-71.6 58.2-129.8 129.8-129.8s129.8 58.2 129.8 129.8v59.7c0 12.7-10.3 23-23 23zM836.6 721H773c-12.7 0-23-10.3-23-23s10.3-23 23-23h63.6c43 0 77.9-35 77.9-77.9 0-43-35-77.9-77.9-77.9H773c-12.7 0-23-10.3-23-23s10.3-23 23-23h63.6c68.3 0 123.9 55.6 123.9 123.9S904.9 721 836.6 721z" p-id="11753"></path></svg>