<?xml version="1.0" standalone="no"?><!DOCTYPE svg PUBLIC "-//W3C//DTD SVG 1.1//EN" "http://www.w3.org/Graphics/SVG/1.1/DTD/svg11.dtd"><svg t="1616400208614" class="icon" viewBox="0 0 1103 1024" version="1.1" xmlns="http://www.w3.org/2000/svg" p-id="15977" data-spm-anchor-id="a313x.7781069.0.i46" xmlns:xlink="http://www.w3.org/1999/xlink" width="215.4296875" height="200"><defs><style type="text/css"></style></defs><path d="M516.515922 0l512 512-512 512-512-512z" fill-opacity="0" p-id="15978"></path><path d="M199.814891 870.927835c184.742268 184.742268 490.886598 184.742268 675.628866 0s184.742268-490.886598 0-675.628866-490.886598-184.742268-675.628866 0-184.742268 490.886598 0 675.628866z" fill="#EE3F4D" p-id="15979" data-spm-anchor-id="a313x.7781069.0.i47" class="selected"></path><path d="M611.526231 538.391753l126.680413 126.680412c15.835052 15.835052 15.835052 47.505155 0 63.340206s-47.505155 15.835052-63.340206 0l-126.680413-126.680412-126.680412 126.680412c-15.835052 15.835052-47.505155 15.835052-63.340206 0s-15.835052-47.505155 0-63.340206L484.845819 538.391753 358.165407 411.71134c-15.835052-15.835052-15.835052-47.505155 0-63.340206 15.835052-15.835052 47.505155-15.835052 63.340206 0l126.680412 126.680412 126.680413-126.680412c15.835052-15.835052 47.505155-15.835052 63.340206 0 15.835052 15.835052 15.835052 47.505155 0 63.340206l-126.680413 126.680413z" fill="#ffffff" p-id="15980" data-spm-anchor-id="a313x.7781069.0.i41" class="selected"></path></svg>
