<?xml version="1.0" standalone="no"?><!DOCTYPE svg PUBLIC "-//W3C//DTD SVG 1.1//EN" "http://www.w3.org/Graphics/SVG/1.1/DTD/svg11.dtd"><svg t="1620302026533" class="icon" viewBox="0 0 1024 1024" version="1.1" xmlns="http://www.w3.org/2000/svg" p-id="47292" xmlns:xlink="http://www.w3.org/1999/xlink" width="200" height="200"><defs><style type="text/css"></style></defs><path d="M512 2L67.1 143.6v454.6C67.1 831.9 512 1022 512 1022s444.9-190.1 444.9-423.9V143.6L512 2z m370.5 595.3c0 36.4-17.8 76.8-52.6 119.7-32.4 39.6-78.5 80.1-136.7 120.5C622.8 886 550.8 923.2 512 941.8c-38.8-18.6-110.8-55.8-181.2-104.3-58.2-40.4-104.3-80.9-136.7-120.5-34.8-42.9-52.6-82.5-52.6-119.7v-402L512 78l370.5 117.3v402zM366.4 328.8c0 66.3 45.3 124.6 109.2 140.7V789c0 20.2 16.2 35.6 35.6 35.6s35.6-16.2 35.6-35.6v-95.4h62.3c20.2 0 35.6-16.2 35.6-35.6 0-20.2-16.2-35.6-35.6-35.6h-62.3V469.5c77.7-20.2 124.6-98.7 104.3-176.3-18.6-78.5-97.9-125.4-175.5-105.2-63.9 16.2-109.2 74.5-109.2 140.8z m218.4 0c0 40.4-33.2 73.6-73.6 73.6s-73.6-33.2-73.6-73.6 33.2-73.6 73.6-73.6c41.2 0 73.6 33.1 73.6 73.6z" p-id="47293"></path></svg>