<?xml version="1.0" standalone="no"?><!DOCTYPE svg PUBLIC "-//W3C//DTD SVG 1.1//EN" "http://www.w3.org/Graphics/SVG/1.1/DTD/svg11.dtd"><svg t="1620294116993" class="icon" viewBox="0 0 1024 1024" version="1.1" xmlns="http://www.w3.org/2000/svg" p-id="38887" xmlns:xlink="http://www.w3.org/1999/xlink" width="200" height="200"><defs><style type="text/css"></style></defs><path d="M166.528 919.936c230.72 1.088 461.504 0.32 692.16 0.384 72.256 0.064 118.464-32.32 132.544-105.28 8.896-204.288 11.264-408.576-1.344-612.8-14.336-51.008-45.76-83.328-99.456-91.584-0.32 18.688-0.576 37.312-0.832 56 34.688 22.848 46.208 54.464 45.696 96.128-1.856 168.128-1.92 336.32-0.256 504.448 0.768 67.456-28.864 94.656-95.36 94.272-218.368-1.536-436.672-1.536-655.04 0-66.752 0.512-95.808-26.944-95.104-94.272 1.728-168.128 1.6-336.32-0.192-504.448C88.832 221.12 100.288 189.44 134.976 166.656 135.168 147.968 135.424 129.344 135.68 110.72 63.552 125.824 30.528 171.072 30.656 243.776c0.384 180.544-0.704 361.216 0.512 541.696C31.744 871.68 79.808 919.552 166.528 919.936zM444.992 166.912c22.528 1.024 46.08 4.416 67.456-0.64 39.424-9.28 111.424 29.248 111.808-31.168 0.448-53.248-71.424-14.08-102.464-27.52-28.672 0-51.2-0.64-73.728 0.128C426.176 108.608 397.248 104.32 395.648 135.872 393.984 168.32 422.784 166.016 444.992 166.912zM723.968 711.552c44.032-1.536 61.696-11.2 60.928-58.816-0.768-46.464-8.832-74.112-61.44-62.144-46.784-9.344-61.824 9.152-61.824 55.936C661.504 693.76 672.064 713.408 723.968 711.552zM509.632 708.736c49.152 10.432 65.28-9.6 64.32-59.776C573.12 604.8 563.072 587.52 515.392 587.904c-47.296 0.32-67.2 10.624-64.768 62.528C452.608 693.44 459.712 719.232 509.632 708.736zM297.792 711.36c45.504-1.152 74.944-7.424 61.632-64.704C372.736 601.28 350.592 588.8 305.024 588.16c-46.528-0.768-67.904 8.896-65.408 61.696C241.536 693.056 249.28 712.576 297.792 711.36zM723.968 500.608C768 499.072 785.6 489.408 784.896 441.792c-0.768-46.4-8.832-74.112-61.44-62.08-46.784-9.344-61.76 9.152-61.824 55.936C661.504 482.816 672.064 502.528 723.968 500.608zM513.28 376.96C461.632 374.656 450.752 394.112 450.56 441.6 450.368 488.96 466.88 499.776 511.36 500.48c49.984 0.832 70.528-14.848 59.968-64.192C581.696 386.752 556.672 378.816 513.28 376.96zM300.992 500.544C343.232 498.176 364.8 492.288 362.944 442.88 361.216 398.72 357.76 366.656 302.912 379.648 257.6 371.136 238.848 385.984 239.808 434.56 240.768 479.552 246.848 503.68 300.992 500.544zM693.76 171.456c1.6 21.952-11.968 54.784 28.032 56.384 40.576 1.664 29.12-30.912 31.168-53.44 1.216-12.224 0.256-24.704 0.256-37.056-0.064-12.288 0.896-24.768-0.256-36.992-1.984-22.656 8.256-54.528-32-53.056-34.56 1.28-26.304 29.568-27.456 50.048C692.224 122.048 691.84 146.88 693.76 171.456zM271.808 171.904C273.408 193.92 260.224 226.688 300.288 227.904c40.512 1.28 28.544-31.424 30.784-53.888 1.28-12.224 0.256-24.64 0.256-37.056C331.328 124.672 332.16 112.256 331.136 99.968 329.28 77.184 338.944 45.44 298.752 47.36 264.32 49.024 272.96 77.376 271.744 97.856 270.336 122.432 270.016 147.328 271.808 171.904zM166.784 165.504C189.696 168.576 212.288 169.6 212.032 137.28 211.84 105.6 190.656 104.64 166.848 109.504 156.48 109.888 146.048 110.336 135.68 110.72 135.424 129.344 135.168 147.968 134.976 166.656 145.6 166.272 156.16 165.888 166.784 165.504zM857.664 109.504c-23.872-4.864-45.056-3.84-45.056 27.968-0.064 31.936 21.504 32.512 45.12 28.096 10.688 0.32 21.248 0.768 31.872 1.152 0.256-18.688 0.512-37.312 0.832-56C879.488 110.272 868.544 109.888 857.664 109.504z" p-id="38888"></path></svg>