<?xml version="1.0" standalone="no"?><!DOCTYPE svg PUBLIC "-//W3C//DTD SVG 1.1//EN" "http://www.w3.org/Graphics/SVG/1.1/DTD/svg11.dtd"><svg t="1620303268358" class="icon" viewBox="0 0 1024 1024" version="1.1" xmlns="http://www.w3.org/2000/svg" p-id="8567" xmlns:xlink="http://www.w3.org/1999/xlink" width="200" height="200"><defs><style type="text/css"></style></defs><path d="M349.296 347.2h328.59c14.138 0 25.6-11.462 25.6-25.6 0-14.138-11.462-25.6-25.6-25.6h-328.59c-14.138 0-25.6 11.462-25.6 25.6 0 14.139 11.462 25.6 25.6 25.6z m0 163.2h328.59c14.138 0 25.6-11.461 25.6-25.6 0-14.139-11.462-25.6-25.6-25.6h-328.59c-14.138 0-25.6 11.461-25.6 25.6 0 14.139 11.462 25.6 25.6 25.6z" fill="" p-id="8568"></path><path d="M894.999 755.2V704h-0.001V131.2c0-44.277-36.311-80-80.897-80H205.846c-44.584 0-80.896 35.723-80.896 80v707.2c0 74.322 61.068 134.4 136.192 134.4h633.587v-0.003c0.09 0 0.179 0.003 0.269 0.003v-51.2c-47.032 0-84.992-37.345-84.992-83.2 0.001-45.855 37.96-83.2 84.993-83.2zM205.846 102.4h608.257c16.493 0 29.696 12.989 29.696 28.8V704H261.142c-32.13 0-61.682 10.996-84.992 29.39V131.2c0-15.812 13.203-28.8 29.696-28.8z m-29.696 736c0-45.855 37.96-83.2 84.992-83.2h526.89c-18.296 22.872-29.225 51.76-29.225 83.2s10.93 60.328 29.226 83.2H261.142c-47.033 0-84.992-37.345-84.992-83.2z" fill="" p-id="8569"></path></svg>