<?xml version="1.0" standalone="no"?><!DOCTYPE svg PUBLIC "-//W3C//DTD SVG 1.1//EN" "http://www.w3.org/Graphics/SVG/1.1/DTD/svg11.dtd"><svg t="1620303174564" class="icon" viewBox="0 0 1024 1024" version="1.1" xmlns="http://www.w3.org/2000/svg" p-id="6993" xmlns:xlink="http://www.w3.org/1999/xlink" width="200" height="200"><defs><style type="text/css"></style></defs><path d="M988.51 995.747h-953.020c-14.047 0-25.492-11.423-25.492-25.542 0-14.069 11.446-25.442 25.492-25.442h953.019c14.096 0 25.491 11.373 25.491 25.442 0.001 14.119-11.394 25.542-25.49 25.542v0zM988.51 995.747z" p-id="6994"></path><path d="M308.453 265.919h-94.419c-14.045 0-25.469-11.422-25.469-25.491 0-14.094 11.423-25.491 25.469-25.491h94.419c14.094 0 25.517 11.398 25.517 25.491 0 14.069-11.423 25.491-25.517 25.491v0zM308.453 265.919z" p-id="6995"></path><path d="M513.152 265.919h-94.419c-14.069 0-25.468-11.422-25.468-25.491 0-14.094 11.397-25.491 25.468-25.491h94.419c14.069 0 25.517 11.398 25.517 25.491-0.001 14.069-11.447 25.491-25.517 25.491v0zM513.152 265.919z" p-id="6996"></path><path d="M738.219 533.452v-94.431c0-14.058 11.449-25.491 25.493-25.491 14.093 0 25.491 11.435 25.491 25.491v94.431c0 14.070-11.398 25.493-25.491 25.493-14.045 0.001-25.493-11.423-25.493-25.493v0zM738.219 533.452z" p-id="6997"></path><path d="M738.219 789.113v-94.422c0-14.068 11.449-25.491 25.493-25.491 14.093 0 25.491 11.423 25.491 25.491v94.422c0 14.068-11.398 25.491-25.491 25.491-14.045 0-25.493-11.423-25.493-25.491v0zM738.219 789.113z" p-id="6998"></path><path d="M308.453 493.058h-94.419c-14.045 0-25.469-11.422-25.469-25.491 0-14.095 11.423-25.491 25.469-25.491h94.419c14.094 0 25.517 11.396 25.517 25.491 0 14.069-11.423 25.491-25.517 25.491v0zM308.453 493.058z" p-id="6999"></path><path d="M513.152 493.058h-94.419c-14.069 0-25.468-11.422-25.468-25.491 0-14.095 11.397-25.491 25.468-25.491h94.419c14.069 0 25.517 11.396 25.517 25.491-0.001 14.069-11.447 25.491-25.517 25.491v0zM513.152 493.058z" p-id="7000"></path><path d="M308.453 720.183h-94.419c-14.045 0-25.469-11.421-25.469-25.492 0-14.068 11.423-25.491 25.469-25.491h94.419c14.094 0 25.517 11.423 25.517 25.491 0 14.071-11.423 25.492-25.517 25.492v0zM308.453 720.183z" p-id="7001"></path><path d="M513.152 720.183h-94.419c-14.069 0-25.468-11.421-25.468-25.492 0-14.068 11.397-25.491 25.468-25.491h94.419c14.069 0 25.517 11.423 25.517 25.491-0.001 14.071-11.447 25.492-25.517 25.492v0zM513.152 720.183z" p-id="7002"></path><path d="M69.831 970.254v-865.855c0-42.001 34.17-76.146 76.158-76.146h433.467c42.038 0 76.183 34.144 76.183 76.146v848.746c0 14.117-11.397 25.492-25.444 25.492-14.093 0-25.54-11.376-25.54-25.492v-848.746c0-13.873-11.299-25.161-25.198-25.161h-433.467c-13.899 0-25.151 11.287-25.151 25.161v865.855h-51.007z" p-id="7003"></path><path d="M633.676 265.919h234.896c41.991 0 76.134 34.146 76.134 76.135v614.867c0 14.070-11.397 25.491-25.419 25.491-14.069 0-25.517-11.422-25.517-25.491v-614.867c0-13.862-11.325-25.15-25.199-25.15h-234.896z" p-id="7004"></path></svg>