<?xml version="1.0" standalone="no"?><!DOCTYPE svg PUBLIC "-//W3C//DTD SVG 1.1//EN" "http://www.w3.org/Graphics/SVG/1.1/DTD/svg11.dtd"><svg t="1620305210875" class="icon" viewBox="0 0 1024 1024" version="1.1" xmlns="http://www.w3.org/2000/svg" p-id="13315" xmlns:xlink="http://www.w3.org/1999/xlink" width="200" height="200"><defs><style type="text/css"></style></defs><path d="M128 358.4A25.6 25.6 0 0 1 102.4 332.8v-170.666667A59.733333 59.733333 0 0 1 162.133333 102.4h170.666667a25.6 25.6 0 0 1 0 51.2h-170.666667a8.533333 8.533333 0 0 0-8.533333 8.533333v170.666667A25.6 25.6 0 0 1 128 358.4zM332.8 921.6h-170.666667A59.733333 59.733333 0 0 1 102.4 861.866667v-170.666667a25.6 25.6 0 0 1 51.2 0v170.666667a8.533333 8.533333 0 0 0 8.533333 8.533333h170.666667a25.6 25.6 0 0 1 0 51.2zM896 358.4a25.6 25.6 0 0 1-25.6-25.6v-170.666667a8.533333 8.533333 0 0 0-8.533333-8.533333h-170.666667a25.6 25.6 0 0 1 0-51.2h170.666667A59.733333 59.733333 0 0 1 921.6 162.133333v170.666667a25.6 25.6 0 0 1-25.6 25.6zM861.866667 921.6h-170.666667a25.6 25.6 0 0 1 0-51.2h170.666667a8.533333 8.533333 0 0 0 8.533333-8.533333v-170.666667a25.6 25.6 0 0 1 51.2 0v170.666667a59.733333 59.733333 0 0 1-59.733333 59.733333z" p-id="13316"></path></svg>