<?xml version="1.0" standalone="no"?><!DOCTYPE svg PUBLIC "-//W3C//DTD SVG 1.1//EN" "http://www.w3.org/Graphics/SVG/1.1/DTD/svg11.dtd"><svg t="1620303353487" class="icon" viewBox="0 0 1024 1024" version="1.1" xmlns="http://www.w3.org/2000/svg" p-id="11649" xmlns:xlink="http://www.w3.org/1999/xlink" width="200" height="200"><defs><style type="text/css"></style></defs><path d="M939.83873 675.858255a248.247522 248.247522 0 0 0-52.780473-79.17021 233.48667 233.48667 0 0 0-77.829223-53.675465 240.643598 240.643598 0 0 0-190.546099 0 248.694518 248.694518 0 0 0-130.161701 134.187661 255.851446 255.851446 0 0 0 0 194.572058 246.905536 246.905536 0 0 0 52.332478 79.17021 237.959625 237.959625 0 0 0 77.829223 53.675464 242.43258 242.43258 0 0 0 268.375322-53.675464 254.50946 254.50946 0 0 0 52.333477-79.17021 255.851446 255.851446 0 0 0 0-194.572058M713.507989 966.151357a191.888085 191.888085 0 1 1 188.31012-191.888085A190.099103 190.099103 0 0 1 713.507989 966.150357M751.081614 268.375321h-517.964831a31.757683 31.757683 0 0 1-34.440656-32.204678 31.757683 31.757683 0 0 1 33.546665-33.547665h518.858822a31.757683 31.757683 0 0 1 33.993661 33.547665 31.757683 31.757683 0 0 1-33.993661 33.993661zM592.739194 470.998299H234.906766a33.994661 33.994661 0 0 1 0-67.541326H592.739194a33.994661 33.994661 0 1 1 0 67.541326zM345.387663 675.411259H233.116783a33.994661 33.994661 0 0 1 0-67.541326h112.27088a33.994661 33.994661 0 1 1 0 67.541326z" p-id="11650"></path><path d="M840.986717 0H165.576457a103.771964 103.771964 0 0 0-101.088991 101.087991v810.045915a104.21896 104.21896 0 0 0 101.088991 101.534987h195.018054a33.994661 33.994661 0 0 0 33.547665-33.993661 33.546665 33.546665 0 0 0-33.546665-33.546665H166.023453a31.757683 31.757683 0 0 1-33.994661-33.994661V101.088991a33.994661 33.994661 0 0 1 10.287898-25.04875 33.994661 33.994661 0 0 1 23.706763-8.497915h674.963264a34.889652 34.889652 0 0 1 23.706763 8.497915 33.994661 33.994661 0 0 1 10.287897 25.04875v352.466482a33.994661 33.994661 0 0 0 67.541326 0v-352.466482A104.21896 104.21896 0 0 0 840.986717 0z m-13.865862 699.565018l-34.441656-34.441656a16.549835 16.549835 0 0 0-23.705764 0L617.787944 816.307853l-5.366946 55.464446a6.261938 6.261938 0 0 0 0 4.472956 5.814942 5.814942 0 0 0 4.02596 0l55.463446-5.367947 108.24492-101.981982 44.729553-44.729554a16.549835 16.549835 0 0 0 0-23.706763z" p-id="11651"></path></svg>