<?xml version="1.0" standalone="no"?><!DOCTYPE svg PUBLIC "-//W3C//DTD SVG 1.1//EN" "http://www.w3.org/Graphics/SVG/1.1/DTD/svg11.dtd"><svg t="1620302103901" class="icon" viewBox="0 0 1024 1024" version="1.1" xmlns="http://www.w3.org/2000/svg" p-id="49285" xmlns:xlink="http://www.w3.org/1999/xlink" width="200" height="200"><defs><style type="text/css"></style></defs><path d="M585.142857 58.514286m43.885714 0l351.085715 0q43.885714 0 43.885714 43.885714l0 0q0 43.885714-43.885714 43.885714l-351.085715 0q-43.885714 0-43.885714-43.885714l0 0q0-43.885714 43.885714-43.885714Z" p-id="49286"></path><path d="M585.142857 292.571429m43.885714 0l351.085715 0q43.885714 0 43.885714 43.885714l0 0q0 43.885714-43.885714 43.885714l-351.085715 0q-43.885714 0-43.885714-43.885714l0 0q0-43.885714 43.885714-43.885714Z" p-id="49287"></path><path d="M351.085714 87.771429v263.314285H87.771429V87.771429h263.314285M365.714286 0H73.142857a73.142857 73.142857 0 0 0-73.142857 73.142857v292.571429a73.142857 73.142857 0 0 0 73.142857 73.142857h292.571429a73.142857 73.142857 0 0 0 73.142857-73.142857V73.142857a73.142857 73.142857 0 0 0-73.142857-73.142857zM351.085714 672.914286v263.314285H87.771429V672.914286h263.314285M365.714286 585.142857H73.142857a73.142857 73.142857 0 0 0-73.142857 73.142857v292.571429a73.142857 73.142857 0 0 0 73.142857 73.142857h292.571429a73.142857 73.142857 0 0 0 73.142857-73.142857V658.285714a73.142857 73.142857 0 0 0-73.142857-73.142857zM936.228571 672.914286v263.314285H672.914286V672.914286h263.314285M950.857143 585.142857H658.285714a73.142857 73.142857 0 0 0-73.142857 73.142857v292.571429a73.142857 73.142857 0 0 0 73.142857 73.142857h292.571429a73.142857 73.142857 0 0 0 73.142857-73.142857V658.285714a73.142857 73.142857 0 0 0-73.142857-73.142857z" p-id="49288"></path></svg>