<?xml version="1.0" standalone="no"?><!DOCTYPE svg PUBLIC "-//W3C//DTD SVG 1.1//EN" "http://www.w3.org/Graphics/SVG/1.1/DTD/svg11.dtd"><svg t="1620304026188" class="icon" viewBox="0 0 1024 1024" version="1.1" xmlns="http://www.w3.org/2000/svg" p-id="17535" xmlns:xlink="http://www.w3.org/1999/xlink" width="200" height="200"><defs><style type="text/css"></style></defs><path d="M882.1 194.3H654.9c-17 0-30.8 13.8-30.8 30.9 0 17 13.8 30.9 30.8 30.9h95c69.6 0 126.1 56.5 126.1 126.1v183.2c0 75.6-61.3 136.8-136.8 136.8h-84.3c-17 0-30.8 13.8-30.8 30.9 0 17 13.8 30.9 30.8 30.9H882c41.2 0 74.6-33.4 74.6-74.6V268.9c0-41.2-33.4-74.6-74.5-74.6zM365.2 702.2h-95c-69.6 0-126.1-56.5-126.1-126.1v-194c0-69.6 56.5-126.1 126.1-126.1h95c17 0 30.9-13.8 30.9-30.9 0-17-13.8-30.9-30.9-30.9H138.1c-41.2 0-74.6 33.4-74.6 74.6v420.4c0 41.2 33.4 74.6 74.6 74.6h227.1c17 0 30.9-13.8 30.9-30.9-0.1-16.9-13.9-30.7-30.9-30.7z" p-id="17536"></path><path d="M303 479.1c0 19.9 16.1 36 36 36h342c19.9 0 36-16.1 36-36s-16.1-36-36-36H339c-19.8 0-36 16.1-36 36z" p-id="17537"></path></svg>