<?xml version="1.0" standalone="no"?><!DOCTYPE svg PUBLIC "-//W3C//DTD SVG 1.1//EN" "http://www.w3.org/Graphics/SVG/1.1/DTD/svg11.dtd"><svg t="1627548116453" class="icon" viewBox="0 0 1024 1024" version="1.1" xmlns="http://www.w3.org/2000/svg" p-id="5735" xmlns:xlink="http://www.w3.org/1999/xlink" width="200" height="200"><defs><style type="text/css">@font-face { font-family: feedback-iconfont; src: url("//at.alicdn.com/t/font_1031158_1uhr8ri0pk5.eot?#iefix") format("embedded-opentype"), url("//at.alicdn.com/t/font_1031158_1uhr8ri0pk5.woff2") format("woff2"), url("//at.alicdn.com/t/font_1031158_1uhr8ri0pk5.woff") format("woff"), url("//at.alicdn.com/t/font_1031158_1uhr8ri0pk5.ttf") format("truetype"), url("//at.alicdn.com/t/font_1031158_1uhr8ri0pk5.svg#iconfont") format("svg"); }
</style></defs><path d="M87.791797 889.972658a35.347443 35.347443 0 1 1 0-70.707848h53.014684v-335.846076C140.819443 278.424304 307.018532 112.251139 512 112.251139c204.99443 0 371.180557 166.186127 371.180557 371.180557v335.846076h53.027646a35.347443 35.347443 0 1 1 0 70.694886H87.791797zM512 182.933063c-165.95281 0-300.485671 134.519899-300.485671 300.472709v335.846076h600.971342v-335.846076c0-165.95281-134.532861-300.472709-300.485671-300.472709z m-106.055291 649.565975a106.055291 106.055291 0 0 0 212.110582 0h70.694886c0 97.617013-79.133165 176.763139-176.750177 176.763139-97.617013 0-176.750177-79.146127-176.750177-176.763139h70.694886z m97.21519-821.909063a35.347443 35.347443 0 0 1 35.347443 35.347443V116.658228a35.347443 35.347443 0 1 1-70.694886 0V45.95038A35.347443 35.347443 0 0 1 503.159899 10.602937z" p-id="5736"></path></svg>