<?xml version="1.0" standalone="no"?><!DOCTYPE svg PUBLIC "-//W3C//DTD SVG 1.1//EN" "http://www.w3.org/Graphics/SVG/1.1/DTD/svg11.dtd"><svg t="1630809754145" class="icon" viewBox="0 0 1061 1024" version="1.1" xmlns="http://www.w3.org/2000/svg" p-id="10977" xmlns:xlink="http://www.w3.org/1999/xlink" width="207.2265625" height="200"><defs><style type="text/css"></style></defs><path d="M177.811423 990.042582C159.318689 990.064211 146.817168 977.541061 142.686043 973.431565l-111.864819-111.886448c-12.71781-12.739439-14.599527-27.490368-14.599527-35.190267 0-5.904698 1.059818-20.850287 10.90098-31.599865l3.395742-3.157824 336.048665-259.785063c6.120987-5.25583 5.969584-7.829672 5.796553-11.117269l-0.19466-3.352484 0.627239-3.309226c2.314295-12.047313 13.647854-31.448462 17.065225-37.093613l2.83339-4.693478 4.43393-3.201081c22.126394-16.048665 44.166272-14.253464 63.783711 5.190943l24.332545 24.332545 13.431565-13.431565c2.963163-2.984792 2.963163-8.002704 0-10.987496L249.641095 217.738425l164.098682-163.990537 53.791146 56.689422 81.216627-81.216627c8.456911-8.694829 19.466036-13.236904 32.465022-13.236904 3.352484 0 7.202433 0.281176 11.528219 1.124704l8.06759 1.578912L1046.775262 464.740791c6.315647 6.229131 9.862791 14.880703 9.906049 24.267658 0.021629 13.907401-7.591754 26.45218-14.7293 33.568097l-149.693815 149.628929c-9.257181 9.213924-21.326124 14.448124-33.222034 14.448124l-11.138898 0L394.468401 236.750253c-14.707672-14.750929-12.544779-40.705644 4.715106-57.965529l30.107469-30.129098-16.567759-17.454545-87.142954 87.078067 211.595809 217.868199c23.835079 23.856708 23.835079 63.069956-0.281176 87.164583l-13.431565 13.431565 23.034809 23.034809c9.365326 9.365326 14.513011 21.823589 14.513011 35.082122 0 9.862791-2.876648 19.422778-8.28388 27.620142l-3.590402 5.428861-5.666779 3.179453c-11.030754 6.229131-23.20784 11.982426-27.036161 13.777628l-7.332207 3.460629-8.954376-0.713755c-6.380534-0.973302-12.328489 1.643799-16.675904 6.986144L214.364312 971.809395c-5.493748 5.666779-17.952011 18.233187-36.466374 18.254816C177.87631 990.042582 177.854681 990.042582 177.811423 990.042582zM72.932748 827.176749l104.597499 104.597499 264.348766-311.651234c14.080433-17.36803 34.627915-27.793173 56.970598-26.690098 1.01656-0.497465 2.098006-1.038189 3.22271-1.578912l-73.365326-73.365326c-0.951673 1.924975-1.708685 3.590402-2.249409 4.823251-0.389321 19.530923-8.88949 36.120311-25.84657 50.525177L72.932748 827.176749zM444.344711 210.081784l418.433254 415.145657 134.034471-133.991213L580.04461 74.381886 444.344711 210.081784z" p-id="10978"></path></svg>