<?xml version="1.0" standalone="no"?><!DOCTYPE svg PUBLIC "-//W3C//DTD SVG 1.1//EN" "http://www.w3.org/Graphics/SVG/1.1/DTD/svg11.dtd"><svg t="1627546970951" class="icon" viewBox="0 0 1024 1024" version="1.1" xmlns="http://www.w3.org/2000/svg" p-id="4257" xmlns:xlink="http://www.w3.org/1999/xlink" width="200" height="200"><defs><style type="text/css">@font-face { font-family: feedback-iconfont; src: url("//at.alicdn.com/t/font_1031158_1uhr8ri0pk5.eot?#iefix") format("embedded-opentype"), url("//at.alicdn.com/t/font_1031158_1uhr8ri0pk5.woff2") format("woff2"), url("//at.alicdn.com/t/font_1031158_1uhr8ri0pk5.woff") format("woff"), url("//at.alicdn.com/t/font_1031158_1uhr8ri0pk5.ttf") format("truetype"), url("//at.alicdn.com/t/font_1031158_1uhr8ri0pk5.svg#iconfont") format("svg"); }
</style></defs><path d="M925.622857 492.544l21.065143-21.504a35.401143 35.401143 0 0 1 50.761143 0 37.156571 37.156571 0 0 1 0 51.785143l-84.626286 86.308571a35.401143 35.401143 0 0 1-50.834286 0l-84.626285-86.308571a37.156571 37.156571 0 0 1 0-51.785143 35.401143 35.401143 0 0 1 50.761143 0l25.746285 26.185143a392.777143 392.777143 0 0 0-93.696-241.590857 378.002286 378.002286 0 0 0-540.525714-38.546286C59.904 358.692571 43.008 605.476571 181.833143 768.365714A378.002286 378.002286 0 0 0 724.845714 804.571429a35.401143 35.401143 0 0 1 51.638857 2.706285 37.156571 37.156571 0 0 1-4.461714 52.589715l-2.633143 2.340571a448.877714 448.877714 0 0 1-641.828571-45.787429c-164.864-193.389714-144.822857-486.473143 44.836571-654.628571a448.877714 448.877714 0 0 1 641.901715 45.787429 466.432 466.432 0 0 1 111.177142 284.964571z" p-id="4258"></path></svg>