<?xml version="1.0" standalone="no"?><!DOCTYPE svg PUBLIC "-//W3C//DTD SVG 1.1//EN" "http://www.w3.org/Graphics/SVG/1.1/DTD/svg11.dtd"><svg t="1620302076728" class="icon" viewBox="0 0 1024 1024" version="1.1" xmlns="http://www.w3.org/2000/svg" p-id="48674" xmlns:xlink="http://www.w3.org/1999/xlink" width="200" height="200"><defs><style type="text/css"></style></defs><path d="M746.221467 666.938812c-54.60959 0-98.984452 44.374861-98.984452 98.984452 0 54.60959 44.374861 99.057557 98.984452 99.057557 54.682696 0 99.057557-44.447966 99.057557-99.057557s-44.374861-98.984452-99.057557-98.984452z m3.362839 151.839517a49.565331 49.565331 0 1 1 0.073106-99.130662 49.565331 49.565331 0 0 1-0.073106 99.130662z m268.369219-101.835555c-3.801471-19.738406-16.594882-32.604923-32.970449-32.604922h-2.339367a56.875852 56.875852 0 0 1-57.022062-56.510326c0-8.187783 3.65526-18.276302 5.044259-21.419826a41.304442 41.304442 0 0 0-15.498304-50.588804l-66.671949-36.625709a45.179019 45.179019 0 0 0-48.688069 9.649887c-8.333994 8.480204-30.411767 25.952349-45.61765 25.952349-15.352094 0-37.502972-17.837671-45.836965-26.464085a45.105913 45.105913 0 0 0-48.614963-10.015414l-1.242789 0.511737-67.841633 36.91813-1.608314 1.023473a40.792706 40.792706 0 0 0-14.0362 49.492226c0.511736 1.242789 5.044259 12.135465 5.044259 21.566036 0 31.142819-25.586823 56.510326-57.022062 56.510326h-2.631788c-16.083146 0-28.876557 12.793411-32.604922 32.604922a331.897644 331.897644 0 0 0-5.629101 52.48954c0 22.150878 5.044259 49.492226 5.629101 52.63575 3.728366 19.738406 16.521777 32.531818 32.970448 32.531817h2.193157c31.508345 0 57.095167 25.367507 57.095167 56.510326 0 8.187783-3.65526 18.276302-4.971154 21.419826a41.304442 41.304442 0 0 0 15.425199 50.588804l65.429161 36.187078a44.447966 44.447966 0 0 0 48.980489-10.23473c8.041573-8.69952 30.923503-27.706874 46.568018-27.706873 15.790725 0 38.453339 19.007354 46.860438 28.291715a44.521072 44.521072 0 0 0 50.588804 9.722993l66.160213-36.260183 1.608315-1.023473a40.719601 40.719601 0 0 0 14.0362-49.419121 64.917425 64.917425 0 0 1-5.117365-21.566036c0-31.142819 25.586823-56.510326 57.022062-56.510326h2.631788c16.083146 0 28.876557-12.793411 32.678028-32.531817 0-0.292421 5.629101-29.315188 5.629101-52.63575 0-22.077773-5.044259-49.419121-5.629101-52.48954zM967.510931 804.157288a108.341918 108.341918 0 0 0-94.305718 107.39155c0 12.647201 3.143524 24.636455 5.848417 32.751133l-47.518386 26.317875a190.146646 190.146646 0 0 0-19.592195-16.814198c-20.981195-15.498304-41.304442-23.393667-60.458007-23.393666-18.934249 0-39.111286 7.749152-59.946271 23.02814a191.097014 191.097014 0 0 0-19.445985 16.375567l-45.398334-25.367507c2.704893-8.187783 5.775311-20.250143 5.775311-32.897344 0-54.828906-40.719601-100.446556-94.232613-107.464656a251.335705 251.335705 0 0 1-3.289734-34.578763c0-11.477518 1.900735-25.879244 3.289734-34.651869a108.341918 108.341918 0 0 0 94.232613-107.464655c0-12.574096-3.070419-24.56335-5.775311-32.678028l49.053594-26.902717c4.240102 3.947681 11.111992 10.015413 19.445986 15.936936 20.615669 14.694147 40.500285 22.150878 58.995902 22.150878 18.349407 0 38.014708-7.310521 58.484167-21.712247 8.333994-5.848417 15.132778-11.696833 19.37288-15.644515l47.006649 26.09856a107.830182 107.830182 0 0 0-5.848417 32.824238c0 54.828906 40.792706 100.373451 94.305718 107.39155 1.315894 8.991941 3.216629 23.393667 3.216629 34.651869 0 11.331307-1.900735 25.659928-3.289734 34.651869zM67.512716 950.075283v-57.022063c0-194.167432 150.011887-354.048522 341.1089-372.105508h0.438632c11.696833-1.096578 23.612982-1.754525 35.602236-1.754525l5.33668 0.14621c42.25481-3.289734 106.221867-13.158937 139.630947-42.985862l16.375567-12.720306a257.476542 257.476542 0 0 0 100.592766-203.96353C706.671549 116.383491 589.118375 0 444.589379 0S182.653419 116.456596 182.653419 259.596593c0 79.903992 36.698814 154.251989 100.592766 204.036636l16.375566 12.720306-19.299775 7.676047C110.133052 551.432584 0.109714 711.97162 0.109714 892.980115v90.504248a33.628396 33.628396 0 0 0 33.774606 33.40908h493.240838a340.524059 340.524059 0 0 1-40.792706-66.81816H67.658926z m183.494072-692.525635c0-105.637026 87.287618-191.535645 194.752274-191.535645 107.39155 0 194.752274 85.898619 194.752274 191.535645 0 105.56392-87.360724 191.46254-194.752274 191.462539-107.464656 0-194.825379-85.898619-194.825379-191.535645z" p-id="48675"></path></svg>