<?xml version="1.0" standalone="no"?><!DOCTYPE svg PUBLIC "-//W3C//DTD SVG 1.1//EN" "http://www.w3.org/Graphics/SVG/1.1/DTD/svg11.dtd"><svg t="1620303238782" class="icon" viewBox="0 0 1024 1024" version="1.1" xmlns="http://www.w3.org/2000/svg" p-id="7776" xmlns:xlink="http://www.w3.org/1999/xlink" width="200" height="200"><defs><style type="text/css"></style></defs><path d="M1011.069 390.5c-0.344-1.5-0.802-3-1.374-4.5l-0.344-1h-0.113l-0.121-0.5h-0.12c-0.114-0.5-0.229-0.5-0.229-0.5-0.113-0.5-0.229-0.5-0.343-1-0.114 0-0.229 0-0.229-0.5l-0.459-1-0.342-0.5c-0.115 0-0.23 0-0.344-0.5l-0.229-0.5c-1.488-2-3.319-4-5.381-6l-0.458-0.5c-0.229 0-0.458 0-0.687-0.5l-0.573-0.5h-0.469l-0.344-0.5h-0.114l-0.802-0.5c-0.229-0.5-0.578-0.5-0.916-0.5l-0.229-0.5c-0.229 0-0.801-0.5-0.801-0.5h-0.808c-0.229-0.5-0.35-0.5-0.452-0.5 0 0-1.146-0.5-1.374-0.5l-0.458-0.5h-1.26l-1.259-0.5h-0.807c-0.224 0-0.452-0.5-0.573-0.5h-1.952c-0.344 0-0.686-0.5-0.916-0.5h-9.845c-68.92 0-124.902-58-124.902-130 0-25 6.978-49.5 20.149-71h0.229l0.114-0.5c0.459-0.5 0.802-1.5 1.145-2l0.345-0.5c0.349-1 0.686-1.5 0.916-2.5h0.234c0.349-1 0.578-2 0.808-2.5l0.229-0.5c0.91-4 1.139-7.5 0.682-11v-0.5c-0.121-0.5-0.23-1.5-0.35-2.5l-0.115-0.5c-0.113-0.5-0.344-1.5-0.687-2.5l-0.114-0.5c-0.229-0.5-0.572-1.5-0.802-2l-0.229-0.5c-0.229-0.5-0.572-1.5-1.03-2l-0.229-0.5c-0.349-1-0.802-1.5-1.259-2.5h-0.121c-0.458-1-0.915-1.5-1.368-2h-0.12l-0.229-0.5c-0.35-0.5-0.688-0.5-1.036-1l-1.139-1.5-0.688-0.5C808.513 69 737.297 25.5 660.593 1.5h-0.35c-2.29-0.5-4.572-1-6.868-1h-1.26c-3.206 0-6.525 0.5-9.502 1.5h-0.458l-0.344 0.5h-0.801l-0.801 0.5c-0.12 0-0.35 0-0.459 0.5 0 0-0.801 0-1.144 0.5h-0.344c-2.862 1.5-5.501 3.5-7.676 6-1.946 2.5-3.664 5-4.923 8-20.613 45-64.913 74.5-112.99 74.5-47.854 0-92.166-29-112.767-74l-0.229-0.5h-0.12l-0.229-0.5c-0.801-2-1.941-4-3.206-5.5-2.747-3.5-6.291-6.5-10.303-8.5l-0.577-0.5h-0.458l-0.343-0.5s-0.802 0-1.031-0.5h-0.693l-0.801-0.5h-0.349c-2.748-1-5.495-1.5-8.358-1.5h-1.19c-2.289 0.5-4.579 0.5-6.749 1.5h-0.349c-76.361 24-147.341 67-205.27 124.5l-0.687 0.5c-0.573 0.5-1.145 1-1.603 2h-0.344c-0.572 1-1.145 1.5-1.603 2.5h-0.114l-0.229 0.5c-0.458 0.5-0.802 1-1.26 2h-0.229c-0.458 1-0.801 1.5-1.03 2.5l-0.229 0.5c-0.229 0.5-0.572 1.5-0.801 2l-0.229 0.5c-0.229 1-0.458 1.5-0.573 2.5l-0.12 0.5c-0.229 1-0.349 1.5-0.349 2.5l-0.115 0.5c-0.114 1-0.114 1.5-0.229 2.5v3.5l0.344 2.5c0.12 1 0.229 1.5 0.458 2.5l0.12 0.5c0.224 1 0.452 1.5 0.802 2.5l0.12 0.5c0.343 1 0.687 1.5 1.03 2.5h0.114c0.344 1 0.687 1.5 1.145 2.5h0.229c0.115 0.5 0.229 0.5 0.344 1 13.509 21 20.722 46 20.722 71.5 0 72-56.097 130-124.906 130H37.384l-0.804 0.5h-2.299l-0.347 0.5h-0.801l-0.687 0.5h-1.372l-0.684 0.5h-0.344l-0.575 0.5h-0.458l-0.118 0.5c-0.346 0-0.801 0.5-1.142 0.5h-0.118c-0.346 0-0.687 0-0.916 0.5l-0.455 0.5h-0.575l-0.458 0.5s-0.458 0.5-0.802 0.5c-0.229 0.5-0.458 0.5-0.687 0.5l-0.346 0.5-0.684 0.5-0.576 0.5h-0.117l-0.458 0.5h-0.117l-0.684 1-0.347 0.5c-0.117 0-0.458 0.5-0.458 0.5l-0.229 0.5h-0.235l-0.229 0.5c-0.117 0-0.229 0-0.455 0.5l-0.804 1-0.347 0.5-0.575 1-0.344 0.5h-0.117l-0.458 1-0.229 0.5-0.346 1s-0.118 0-0.229 0.5c0 0-0.229 0.5-0.455 1h-0.118l-0.117 0.5c-0.117 0-0.229 0.5-0.346 0.5 0 0.5-0.117 0.5-0.117 0.5l-0.118 0.5v0.5l-0.346 1-0.117 0.5s-0.117 0-0.117 0.5l-0.117 0.5C4.577 430.5 0 471 0 512s4.465 81.5 13.28 121.5l0.118 0.5 0.118 0.5 0.117 0.5s0.117 0 0.117 0.5h0.117l0.118 0.5c0.117 0.5 0.229 0.5 0.229 1 0.117 0 0.117 0.5 0.229 0.5l0.346 1h0.118l0.118 0.5 0.117 0.5 0.226 0.5c0.117 0 0.229 0 0.229 0.5l0.346 0.5 0.575 1.5 0.346 0.5 0.456 0.5 0.229 0.5 0.458 1c0.117 0 0.229 0 0.347 0.5h0.117l0.346 0.5c0.117 0 0.344 0.5 0.455 0.5 0.112 0 0.229 0.5 0.229 0.5l0.687 0.5 0.347 0.5 0.229 0.5h0.343l0.117 0.5h0.346c0.117 0.5 0.346 0.5 0.458 0.5l0.346 0.5c0.229 0.5 0.572 0.5 0.801 0.5 0 0 0.804 1 1.033 1l0.458 0.5c0.226 0 0.573 0.5 0.573 0.5 0.229 0 0.458 0 0.687 0.5h0.346l0.802 0.5 0.346 0.5h0.687l0.572 0.5 0.688 0.5 0.687 0.5h1.26l1.26 1h1.488l0.805 0.5h1.147l0.458 0.5h2.522c0.346 0 0.684 0 1.03 0.5h3.317c2.063-0.5 4.35-0.5 6.983-0.5 68.917 0 124.899 58.5 124.899 130 0 26-7.207 51-20.836 72h-0.115l-0.114 0.5h-0.12v0.5h-0.229c-0.35 1-0.687 1.5-1.031 2l-0.229 0.5-0.916 2v0.5l-0.121 0.5c-0.229 0.5-0.572 1.5-0.801 2.5h-0.114l-0.573 2.5c-0.12 1.5-0.229 2-0.349 3v0.5c0 1-0.121 2 0 2.5 0 1 0.12 2 0.229 2.5v0.5c0.12 1 0.229 1.5 0.458 2.5l0.12 0.5 0.458 2 0.343 1c0.229 0.5 0.344 1 0.573 1.5l0.114 0.5 0.229 0.5 1.03 2 0.229 0.5c0.578 1 0.916 1.5 1.374 2.5h0.115c0.578 1 1.145 2 1.717 2.5 0.579 0.5 1.145 1.5 1.718 2h0.349l0.12 0.5h0.229c57.814 57.5 128.565 100 204.577 124l0.807 0.5c2.404 0.5 4.802 1 7.207 1h1.138c2.176 0 4.242 0 6.297-0.5l4.47-1.5 0.573-0.5h1.151l0.229-0.5h0.114c3.893-2 7.327-4.5 9.96-8.5 1.259-1.5 2.404-3.5 3.32-5.5l0.458-1c20.607-44.5 64.913-74 112.761-74 48.204 0 92.503 29.5 113.116 75 1.029 2 2.397 4.5 3.892 6.5 2.627 3 5.953 6 9.726 7.5h0.12l0.344 0.5h1.031l0.802 0.5 0.458 0.5h1.374l0.687 0.5h1.144c1.146 0.5 2.296 0.5 3.549 1h3.321c2.747 0 5.61-0.5 8.472-1.5 77.048-24 148.601-67.5 207.102-126h0.115v-0.5h0.113c0.573-0.5 1.26-1 1.604-1.5l0.343-0.5c0.459-0.5 0.916-1.5 1.489-2l0.119-0.5c0.453-0.5 0.911-1 1.26-2l0.229-0.5c0.349-1 0.682-1.5 1.029-2.5l0.229-0.5c0.349-0.5 0.578-1.5 0.808-2l0.114-0.5c0.229-1 0.344-1.5 0.572-2l0.114-0.5 0.121-0.5c0.12-0.5 0.228-1 0.349-1.5v-1c0.114-1 0.114-1.5 0.114-2.5v-0.5c0-1.5-0.114-3.5-0.343-5v-0.5c-0.12-1-0.35-1.5-0.579-2.5l-0.12-0.5c-0.223-0.5-0.452-1.5-0.802-2.5h-0.113l-0.115-0.5c-0.229-0.5-0.578-1-0.916-2l-0.229-0.5c-0.343-0.5-0.687-1.5-1.146-2l-0.113-0.5c-0.121 0-0.121-0.5-0.229-0.5-13.166-21-20.155-45.5-20.155-70.5 0-72 55.988-130 124.907-130h8.586l2.633-0.5h1.26c0.229 0 0.344-0.5 0.572-0.5h0.573l1.029-0.5h0.688c2.175-1 4.24-2 6.067-3l0.457-0.5c0.229 0 0.458 0 0.572-0.5h0.349l0.349-0.5h0.459l0.223-0.5h0.35l0.229-0.5h0.229l0.343-0.5c0.229 0 0.572-0.5 0.802-0.5l0.572-0.5 0.458-0.5c0.916-1 1.837-2 2.633-3l0.114-0.5h0.121c0.229-0.5 0.349-0.5 0.578-1h0.114c0.114-0.5 0.229-0.5 0.343-1l0.459-0.5 0.228-0.5h0.115l0.12-0.5h0.121l0.114-0.5c0.113-0.5 0.457-1 0.457-1l1.03-4h0.458c0.229-0.5 0.344-1.5 0.572-2 8.931-40 13.515-81 13.515-122 0.637-41-3.943-82-12.872-121.5zM918.457 586l-0.624 4-3.847 0.5c-39.795 5-76.572 24.5-103.597 55.5-27.739 32-43.023 73-43.023 116 0 24.5 4.786 48 14.241 70l1.563 4-3.017 2.5c-37.305 33-79.498 59-125.313 76.5l-3.75 1.5-2.283-3.5c-30.969-46.5-82.097-74.5-136.546-74.5-54.443 0-105.468 27.5-136.534 74.5l-2.289 3.5-3.738-1.5c-45.198-17.5-86.973-42.5-123.969-75.5l-3.011-2.5 1.666-4c9.771-22 14.751-46 14.751-71 0-43.5-15.478-85-43.641-116.5-27.43-31.5-64.626-51-104.844-55l-3.944-0.5-0.624-4.5c-4.047-24-6.022-49-6.022-73.5s2.072-49 6.022-73.5l0.733-4 3.938-0.5c40.218-4.5 77.415-23.5 104.85-55 28.157-32 43.647-73.5 43.647-116.5 0-25-4.992-49-14.757-71.5l-1.671-3.5 3.017-3c36.996-32.5 78.662-58 123.969-75l3.732-1.5 2.29 3.5C406.903 158 457.922 186 512.37 186s105.469-28 136.539-74.5l2.29-3.5 3.743 1.5c45.817 17.5 88.017 43 125.32 76.5l3.017 2.5-1.563 3.5c-9.456 22-14.235 46-14.235 70 0 43.5 15.266 84.5 43.017 116.5 27.013 31 63.803 50.5 103.603 55.5l3.835 0.5 0.63 4c4.047 24 6.021 49 6.021 73.5 0 25-2.071 49.5-6.13 74z" p-id="7777"></path><path d="M512.948 330.5c-98.685 0-178.933 83.5-178.933 186 0 103 80.248 186.5 178.933 186.5 98.686 0 178.938-83.5 178.938-186.5 0.001-102.5-80.252-186-178.938-186z m0 291c-55.564 0-100.769-47-100.769-105 0-57.5 45.198-104.5 100.769-104.5 55.576 0 100.77 47 100.77 104.5 0 58-45.199 105-100.77 105z" p-id="7778"></path></svg>