<?xml version="1.0" standalone="no"?><!DOCTYPE svg PUBLIC "-//W3C//DTD SVG 1.1//EN" "http://www.w3.org/Graphics/SVG/1.1/DTD/svg11.dtd"><svg t="1627456650616" class="icon" viewBox="0 0 1024 1024" version="1.1" xmlns="http://www.w3.org/2000/svg" p-id="4048" xmlns:xlink="http://www.w3.org/1999/xlink" width="200" height="200"><defs><style type="text/css">@font-face { font-family: feedback-iconfont; src: url("//at.alicdn.com/t/font_1031158_1uhr8ri0pk5.eot?#iefix") format("embedded-opentype"), url("//at.alicdn.com/t/font_1031158_1uhr8ri0pk5.woff2") format("woff2"), url("//at.alicdn.com/t/font_1031158_1uhr8ri0pk5.woff") format("woff"), url("//at.alicdn.com/t/font_1031158_1uhr8ri0pk5.ttf") format("truetype"), url("//at.alicdn.com/t/font_1031158_1uhr8ri0pk5.svg#iconfont") format("svg"); }
</style></defs><path d="M953.056575 725.068339a135.15837 135.15837 0 0 1 0 85.241926 122.871245 122.871245 0 0 1-19.262628 42.364982c-9.279339 15.99886-20.862514 30.46183-34.493542 43.004936A566.103665 566.103665 0 0 1 512 1023.223095a566.103665 566.103665 0 0 1-387.300405-127.542912 182.451 182.451 0 0 1-34.493542-43.004936 122.871245 122.871245 0 0 1-19.262628-42.236991A135.15837 135.15837 0 0 1 64.031918 767.369325a123.703186 123.703186 0 0 1 6.911507-42.300986c3.64774 15.166919 10.23927 29.501898 19.262628 42.23699 9.279339 15.99886 20.862514 30.525825 34.493542 43.004936 16.510824 15.99886 34.81352 30.205848 54.396124 42.300986A629.395156 629.395156 0 0 0 512 937.981169a629.395156 629.395156 0 0 0 332.840285-85.305922c19.6466-12.095138 37.949296-26.238131 54.46012-42.236991 13.631029-12.543106 25.214203-27.070071 34.493542-43.004936 9.023357-12.799088 15.614887-27.134067 19.262628-42.300986z m0-170.483853a135.15837 135.15837 0 0 1 0 85.241926 122.871245 122.871245 0 0 1-19.262628 42.300986c-9.279339 15.99886-20.862514 30.46183-34.493542 43.004936-16.510824 15.99886-34.81352 30.205848-54.396124 42.236991a466.974728 466.974728 0 0 1-84.793959 43.004936A731.019915 731.019915 0 0 1 512 852.675247a731.019915 731.019915 0 0 1-248.110322-42.236991 466.974728 466.974728 0 0 1-84.729963-43.004936 317.289393 317.289393 0 0 1-54.46012-42.300986 182.451 182.451 0 0 1-34.493542-43.004936 122.871245 122.871245 0 0 1-19.262628-42.23699A135.15837 135.15837 0 0 1 64.031918 596.821476a123.703186 123.703186 0 0 1 6.911507-42.23699c3.64774 15.102924 10.23927 29.437903 19.262628 42.23699 9.279339 15.99886 20.862514 30.46183 34.493542 42.940941 16.510824 15.99886 34.81352 30.205848 54.396124 42.300986 26.750094 17.150778 55.16407 31.549752 84.793959 43.004936 79.610328 28.34998 163.572345 42.620963 248.110322 42.23699a731.019915 731.019915 0 0 0 248.110322-42.23699 466.974728 466.974728 0 0 0 84.729963-43.004936c19.6466-12.095138 37.949296-26.238131 54.46012-42.236991 13.631029-12.543106 25.214203-27.070071 34.493542-43.004936 9.023357-12.799088 15.614887-27.134067 19.262628-42.23699z m0-170.547849a135.15837 135.15837 0 0 1 0 85.241927 122.871245 122.871245 0 0 1-19.262628 42.364981c-9.279339 15.934865-20.862514 30.397834-34.493542 42.940941-16.510824 15.99886-34.81352 30.205848-54.396124 42.23699a466.974728 466.974728 0 0 1-84.793959 43.004936A731.019915 731.019915 0 0 1 512 682.191394 731.019915 731.019915 0 0 1 263.889678 639.954403 466.974728 466.974728 0 0 1 179.22371 596.821476a317.289393 317.289393 0 0 1-54.460119-42.23699 182.451 182.451 0 0 1-34.493543-43.004936 122.871245 122.871245 0 0 1-19.262627-42.300986A135.15837 135.15837 0 0 1 64.031918 426.337623a123.703186 123.703186 0 0 1 6.911507-42.23699c3.64774 15.102924 10.23927 29.437903 19.262628 42.23699 9.279339 15.99886 20.862514 30.46183 34.493542 43.004936 16.510824 15.99886 34.81352 30.205848 54.396124 42.236991 26.750094 17.214773 55.16407 31.613748 84.793959 43.004936 79.610328 28.34998 163.572345 42.620963 248.110322 42.23699a731.019915 731.019915 0 0 0 248.110322-42.23699 466.974728 466.974728 0 0 0 84.729963-42.940941c19.6466-12.159134 37.949296-26.302126 54.46012-42.300986 13.631029-12.543106 25.214203-27.006076 34.493542-43.004936 9.023357-12.799088 15.614887-27.134067 19.262628-42.23699zM512 0c247.406372 0 447.968082 113.911884 447.968082 255.789775 0 14.59096-2.303836 29.117925-6.911507 43.004936a122.871245 122.871245 0 0 1-19.262628 42.23699c-9.279339 15.99886-20.862514 30.525825-34.493542 43.004936-16.510824 15.99886-34.81352 30.205848-54.396124 42.300986a466.974728 466.974728 0 0 1-84.793959 43.004936A731.019915 731.019915 0 0 1 512 511.57955a731.019915 731.019915 0 0 1-248.110322-42.236991A466.974728 466.974728 0 0 1 179.22371 426.337623a317.289393 317.289393 0 0 1-54.460119-42.23699 182.451 182.451 0 0 1-34.493543-43.004936 122.871245 122.871245 0 0 1-19.262627-42.300986A135.15837 135.15837 0 0 1 64.031918 255.789775C64.031918 113.911884 264.593628 0 512 0z" p-id="4049"></path></svg>