<?xml version="1.0" standalone="no"?><!DOCTYPE svg PUBLIC "-//W3C//DTD SVG 1.1//EN" "http://www.w3.org/Graphics/SVG/1.1/DTD/svg11.dtd"><svg t="1620304312032" class="icon" viewBox="0 0 1024 1024" version="1.1" xmlns="http://www.w3.org/2000/svg" p-id="19634" xmlns:xlink="http://www.w3.org/1999/xlink" width="200" height="200"><defs><style type="text/css"></style></defs><path d="M266.255575 652.501988c-6.792707 0-13.307074-2.698458-18.110473-7.501858L82.290703 479.136521c-4.804423-4.804423-7.502881-11.320836-7.500834-18.114566 0.001023-6.794753 2.701528-13.30912 7.506974-18.111496l0.74292-0.74292c10.003841-9.998725 26.221198-9.994632 36.220946 0.01228 1.786693 1.787716 3.254114 3.773953 4.40124 5.887081l142.593626 142.601812 112.420419-112.427582-147.744949-147.743926c-10.001795-10.001795-10.001795-26.218128 0-36.220946s26.218128-10.001795 36.220946 0l165.855422 165.853375c10.001795 10.001795 10.001795 26.218128 0 36.219923L284.367071 645.00013C279.563672 649.803529 273.049305 652.501988 266.255575 652.501988z" p-id="19635"></path><path d="M495.736083 431.892521c-6.5553 0-13.108552-2.499937-18.110473-7.501858L311.773258 258.536264c-10.001795-10.001795-10.001795-26.218128 0-36.220946L460.412576 73.677023c4.802376-4.803399 11.317767-7.501858 18.110473-7.501858 0 0 0 0 0 0 6.792707 0 13.307074 2.698458 18.110473 7.501858l165.853375 165.862585c4.802376 4.803399 7.500834 11.317767 7.500834 18.110473 0 6.792707-2.698458 13.307074-7.501858 18.10945L513.846556 424.391686C508.845659 429.391561 502.290359 431.892521 495.736083 431.892521zM366.104677 240.425791 495.737106 370.06129l112.419396-112.412233L478.523049 128.008442 366.104677 240.425791z" p-id="19636"></path><path d="M546.068422 956.509886C546.067398 956.509886 546.068422 956.509886 546.068422 956.509886c-6.79373 0-13.308097-2.699482-18.111496-7.501858L362.121969 783.154653c-10.000771-10.001795-10.000771-26.218128 0.001023-36.220946l148.638295-148.640342c4.803399-4.802376 11.31879-7.500834 18.110473-7.500834 0 0 0 0 0.001023 0 6.792707 0 13.307074 2.699482 18.110473 7.501858L712.818213 764.146741c9.999748 10.001795 9.999748 26.218128-0.001023 36.219923L564.178895 949.008029C559.375495 953.811428 552.861128 956.509886 546.068422 956.509886zM416.452365 765.045203l129.61708 129.631406 112.417349-112.420419L528.870738 652.625808 416.452365 765.045203z" p-id="19637"></path><path d="M775.568373 735.920886c-6.5553 0-13.109576-2.499937-18.110473-7.501858l-165.853375-165.857469c-10.000771-10.000771-10.000771-26.217105 0-36.219923l148.641365-148.648528c4.802376-4.803399 11.31879-7.501858 18.110473-7.501858 0.001023 0 0.001023 0 0.001023 0 6.79373 0 13.308097 2.699482 18.110473 7.502881l165.832909 165.863608c10.000771 10.002818 9.999748 26.219151-0.00307 36.220946s-26.219151 9.999748-36.220946-0.00307L758.355339 432.026574 645.935943 544.452109 793.679869 692.200128c10.001795 10.001795 10.000771 26.218128-0.001023 36.220946C788.678972 733.420949 782.122649 735.920886 775.568373 735.920886z" p-id="19638"></path><path d="M690.762895 488.791415c-6.554276 0-13.108552-2.499937-18.10945-7.500834L546.523793 355.170139c-10.001795-10.000771-10.002818-26.218128-0.001023-36.220946 10.000771-10.001795 26.217105-10.002818 36.220946-0.001023l126.129652 126.120442c10.001795 10.000771 10.002818 26.218128 0.001023 36.220946C703.873494 486.290455 697.318194 488.791415 690.762895 488.791415z" p-id="19639"></path><path d="M460.547653 706.393385c-6.554276 0-13.108552-2.499937-18.10945-7.500834L319.541175 576.004733c-10.001795-10.000771-10.002818-26.218128-0.001023-36.220946 10.000771-10.002818 26.218128-10.001795 36.220946-0.001023l122.896005 122.887818c10.001795 10.000771 10.002818 26.218128 0.001023 36.220946C473.657228 703.893448 467.101929 706.393385 460.547653 706.393385z" p-id="19640"></path></svg>