<?xml version="1.0" standalone="no"?><!DOCTYPE svg PUBLIC "-//W3C//DTD SVG 1.1//EN" "http://www.w3.org/Graphics/SVG/1.1/DTD/svg11.dtd"><svg t="1620294391624" class="icon" viewBox="0 0 1024 1024" version="1.1" xmlns="http://www.w3.org/2000/svg" p-id="45034" xmlns:xlink="http://www.w3.org/1999/xlink" width="200" height="200"><defs><style type="text/css"></style></defs><path d="M859.8 913H655c-22 0-40-18-40-40V540.4h-206v332.8c0 22-18 40-40 40H164.2c-22 0-40-18-40-40V376.2c0-13.6 7-26.4 18.4-33.6L490.4 119.4c13.2-8.4 30-8.4 43.2 0l347.8 223.2c11.4 7.4 18.4 20 18.4 33.6v496.8c0 22.2-18 40-40 40z m-188.8-56h172.8v-472L512 172.2 180.2 385v472h172.8V524.4c0-22 18-40 40-40h238c22 0 40 18 40 40v332.6z" fill="#4F4F4F" p-id="45035"></path></svg>