<?xml version="1.0" standalone="no"?><!DOCTYPE svg PUBLIC "-//W3C//DTD SVG 1.1//EN" "http://www.w3.org/Graphics/SVG/1.1/DTD/svg11.dtd"><svg t="1620303310238" class="icon" viewBox="0 0 1024 1024" version="1.1" xmlns="http://www.w3.org/2000/svg" p-id="10118" xmlns:xlink="http://www.w3.org/1999/xlink" width="200" height="200"><defs><style type="text/css"></style></defs><path d="M 510.832 915.694 c -105.524 0 -211.046 0.01125 -316.57 -0.0075 c -26.1844 -0.0046875 -46.7128 -16.2656 -51.7416 -41.0194 c -0.63 -3.105 -0.799688 -6.34969 -0.801562 -9.52969 c -0.0375 -144.855 -0.0440625 -289.711 -0.0215625 -434.566 c 0.00375 -27.7472 22.6444 -51.1753 50.2781 -50.0288 c 14.1103 0.586875 23.8322 -3.96469 33.9394 -13.4719 c 76.1156 -71.6006 152.735 -142.666 229.373 -213.708 c 5.37094 -4.97813 8.12625 -8.88 6.24375 -17.0747 c -6.11719 -26.6316 12.5869 -53.6859 39.6188 -59.0737 c 27.2709 -5.43563 54.1603 11.9531 59.9212 38.7966 c 1.84125 8.57813 1.86563 17.1816 -0.9375 25.5441 c -1.05375 3.14625 -0.1425 4.83938 2.09156 6.91406 c 72.465 67.3172 144.87 134.697 217.282 202.071 c 9.70969 9.03375 19.3341 18.1622 29.1844 27.0394 c 1.5825 1.42594 4.10906 2.37656 6.25781 2.4975 c 7.33125 0.4125 14.8041 -0.437813 22.0153 0.619687 c 26.8875 3.94313 44.2659 24.825 44.3531 52.8253 c 0.107813 34.0556 0.02625 68.1113 0.02625 102.166 c 0 108.563 0.0065625 217.123 -0.005625 325.686 c -0.0028125 24.6956 -12.66 44.0953 -34.2 51.2775 c -6.08063 2.02781 -12.8175 2.90625 -19.2553 2.9175 c -105.684 0.17625 -211.368 0.125625 -317.051 0.125625 Z m -318.056 -51.3141 h 636.921 V 431.297 H 192.776 v 433.083 Z m 560.694 -484.491 l 0.569062 -0.940313 c -1.10156 -0.9225 -2.24813 -1.79719 -3.29813 -2.77406 c -21.1763 -19.6875 -42.3375 -39.39 -63.5062 -59.0831 c -50.4122 -46.8956 -100.834 -93.7809 -151.21 -140.715 c -2.03437 -1.89562 -3.67688 -2.78625 -6.64594 -1.59844 c -11.9175 4.76438 -24.0187 4.7175 -35.9625 0.0534375 c -2.84625 -1.11188 -4.59562 -0.620625 -6.68719 1.41188 c -5.72531 5.56406 -11.6672 10.9059 -17.5153 16.3453 c -59.4216 55.2703 -118.845 110.54 -178.258 165.818 c -7.42781 6.91125 -14.8069 13.875 -22.92 21.4837 l 485.435 -0.0009375 Z" p-id="10119"></path><path d="M 383.754 648.028 c -0.0553125 21.315 -17.1722 38.2481 -38.5387 38.1234 c -20.9981 -0.121875 -38.0438 -17.3259 -37.9491 -38.3016 c 0.0965625 -21.2362 17.3634 -38.3044 38.6287 -38.1844 c 21.0047 0.118125 37.9144 17.2519 37.8591 38.3625 Z M 677.005 686.152 c -21.3131 -0.080625 -38.2659 -17.2434 -38.115 -38.5894 c 0.147188 -21 17.3428 -37.9819 38.3719 -37.8975 c 21.2466 0.084375 38.2706 17.3381 38.1141 38.6278 c -0.155625 21.0469 -17.2763 37.9388 -38.3719 37.8591 Z M 511.044 686.153 c -21 -0.119062 -38.0447 -17.2884 -37.9987 -38.2781 c 0.0459375 -21.1912 17.3531 -38.3297 38.5847 -38.2088 c 21.1725 0.12 38.1347 17.4553 37.9659 38.8003 c -0.165937 20.9344 -17.4234 37.8056 -38.5509 37.6866 Z" p-id="10120"></path></svg>