<?xml version="1.0" standalone="no"?><!DOCTYPE svg PUBLIC "-//W3C//DTD SVG 1.1//EN" "http://www.w3.org/Graphics/SVG/1.1/DTD/svg11.dtd"><svg t="1627457273761" class="icon" viewBox="0 0 1024 1024" version="1.1" xmlns="http://www.w3.org/2000/svg" p-id="19628" xmlns:xlink="http://www.w3.org/1999/xlink" width="200" height="200"><defs><style type="text/css">@font-face { font-family: feedback-iconfont; src: url("//at.alicdn.com/t/font_1031158_1uhr8ri0pk5.eot?#iefix") format("embedded-opentype"), url("//at.alicdn.com/t/font_1031158_1uhr8ri0pk5.woff2") format("woff2"), url("//at.alicdn.com/t/font_1031158_1uhr8ri0pk5.woff") format("woff"), url("//at.alicdn.com/t/font_1031158_1uhr8ri0pk5.ttf") format("truetype"), url("//at.alicdn.com/t/font_1031158_1uhr8ri0pk5.svg#iconfont") format("svg"); }
</style></defs><path d="M918.38464 535.35744c13.76256-13.76256 13.76256-35.87072 0-46.70976L756.5824 375.63392c-12.50304-9.16992-30.01856-6.67136-39.19872 5.42208-3.33312 5.00736-5.42208 10.84416-5.42208 16.68608v228.52096c0 22.10304 25.02144 35.8656 44.6208 22.10304l161.80224-113.00864z m-22.51264-315.26912c18.33984 0 33.3568-15.01696 33.3568-33.36704 0-18.33984-15.01696-33.3568-33.3568-33.3568H128.55808c-18.35008 0-33.36704 15.01696-33.36704 33.3568 0 18.35008 15.01696 33.36704 33.36704 33.36704h767.31392z m0 650.5472c18.33984 0 33.3568-15.01696 33.3568-33.36704 0-18.34496-15.01696-33.36192-33.3568-33.36192H128.55808c-18.35008 0-33.36704 15.01696-33.36704 33.36192 0 18.35008 15.01696 33.36704 33.36704 33.36704h767.31392z m-283.57632-433.69984c18.35008 0 33.36704-15.01184 33.36704-33.36192 0-18.34496-15.01696-33.36192-33.36704-33.36192h-483.7376c-18.35008 0-33.36704 15.01696-33.36704 33.36192 0 18.35008 15.01696 33.36192 33.36704 33.36192h483.7376z m0 216.84736c18.35008 0 33.36704-15.01696 33.36704-32.95232v-0.4096c0-18.3552-15.01696-33.36704-33.36704-33.36704H128.13824c-18.35008 0-33.36704 15.01184-33.36704 33.36704 0 18.34496 15.01696 33.36192 33.36704 33.36192h484.15744z m0 0" p-id="19629"></path></svg>