<?xml version="1.0" standalone="no"?><!DOCTYPE svg PUBLIC "-//W3C//DTD SVG 1.1//EN" "http://www.w3.org/Graphics/SVG/1.1/DTD/svg11.dtd"><svg t="1620303944844" class="icon" viewBox="0 0 1024 1024" version="1.1" xmlns="http://www.w3.org/2000/svg" p-id="16039" xmlns:xlink="http://www.w3.org/1999/xlink" width="200" height="200"><defs><style type="text/css"></style></defs><path d="M864 96H162c-53 0-96 43-96 96v478.3c0 53 43 96 96 96h318.1v97.4H335.7c-8.8 0-16 7.2-16 16v32c0 8.8 7.2 16 16 16h352.5c8.8 0 16-7.2 16-16v-32c0-8.8-7.2-16-16-16H544.1v-97.4H864c53 0 96-43 96-96V192c0-53-43-96-96-96z m32 574.3c0 17.6-14.4 32-32 32H162c-17.6 0-32-14.4-32-32V192c0-17.6 14.4-32 32-32h702c17.6 0 32 14.4 32 32v478.3z" p-id="16040"></path><path d="M749.9 619.6c-2.2-7.8-4.9-15.6-8-23.2-17.5-42.3-48.5-78.4-89.5-104.4-11.9-7.5-24.3-14-37.3-19.5 27.1-26.3 43.9-63.1 43.9-103.8 0-79.9-65-144.9-144.9-144.9s-144.9 65-144.9 144.9c0 40 16.3 76.3 42.6 102.5-13.8 5.6-27.1 12.4-39.8 20.4-40.8 25.7-71.8 61.5-89.5 103.6-3.4 8-6.2 16.1-8.5 24.3-2.9 10.2 4.8 20.4 15.4 20.4H323c6.9 0 12.9-4.4 15.2-10.9 1-3 2.2-6 3.4-9 26.3-62.2 94.7-104.1 170.4-104.1 76.1 0 144.7 42.2 170.7 104.9 1.1 2.7 2.2 5.5 3.1 8.2 2.2 6.4 8.3 10.8 15.1 10.8h33.5c10.7 0.2 18.4-9.9 15.5-20.2zM514.2 288c44.6 0 80.9 36.3 80.9 80.9s-36.3 80.9-80.9 80.9c-44.6 0-80.9-36.3-80.9-80.9s36.3-80.9 80.9-80.9z" p-id="16041"></path></svg>