<?xml version="1.0" standalone="no"?><!DOCTYPE svg PUBLIC "-//W3C//DTD SVG 1.1//EN" "http://www.w3.org/Graphics/SVG/1.1/DTD/svg11.dtd"><svg t="1620301583916" class="icon" viewBox="0 0 1024 1024" version="1.1" xmlns="http://www.w3.org/2000/svg" p-id="5298" xmlns:xlink="http://www.w3.org/1999/xlink" width="200" height="200"><defs><style type="text/css"></style></defs><path d="M896 275.2c12.8-6.4 25.6-19.2 25.6-32s-6.4-25.6-19.2-32L537.6 19.2c-19.2-6.4-44.8-6.4-64 0L128 204.8c-19.2 6.4-25.6 19.2-25.6 32s6.4 25.6 19.2 32l364.8 198.4H512c12.8 0 25.6 0 32-6.4L896 275.2zM147.2 249.6l-6.4-25.6 6.4 25.6c0-6.4 0 0 0 0z m358.4 172.8L166.4 236.8 499.2 64h19.2l339.2 185.6-332.8 166.4c-6.4 6.4-12.8 6.4-19.2 6.4zM448 512L121.6 339.2c-12.8-6.4-25.6-6.4-38.4 0-6.4 6.4-12.8 19.2-12.8 32v409.6c0 19.2 12.8 44.8 32 51.2l326.4 172.8c6.4 6.4 12.8 6.4 19.2 6.4 6.4 0 12.8 0 19.2-6.4 12.8-6.4 19.2-19.2 19.2-32V563.2c-6.4-19.2-19.2-38.4-38.4-51.2z m-12.8 441.6L128 787.2c-6.4 0-6.4-6.4-6.4-12.8v-384l307.2 166.4c6.4 0 6.4 6.4 6.4 12.8v384z m6.4 32l6.4-19.2-6.4 19.2zM940.8 339.2c-12.8-6.4-25.6-6.4-38.4 0L576 512c-19.2 12.8-32 32-32 51.2v409.6c0 12.8 6.4 25.6 19.2 32 6.4 6.4 12.8 6.4 19.2 6.4 6.4 0 12.8 0 19.2-6.4l121.6-64c12.8-6.4 19.2-19.2 12.8-32-19.2-12.8-32-12.8-44.8-6.4l-102.4 57.6V563.2s6.4-6.4 6.4-12.8L902.4 384v390.4s-6.4 6.4-6.4 12.8l-32 19.2c-12.8 6.4-19.2 19.2-12.8 32 6.4 12.8 19.2 19.2 32 12.8l32-19.2c19.2-12.8 32-32 32-51.2V371.2c6.4-12.8 0-25.6-6.4-32z" p-id="5299"></path></svg>