<?xml version="1.0" standalone="no"?><!DOCTYPE svg PUBLIC "-//W3C//DTD SVG 1.1//EN" "http://www.w3.org/Graphics/SVG/1.1/DTD/svg11.dtd"><svg t="1621653784478" class="icon" viewBox="0 0 1024 1024" version="1.1" xmlns="http://www.w3.org/2000/svg" p-id="2060" xmlns:xlink="http://www.w3.org/1999/xlink" width="200" height="200"><defs><style type="text/css"></style></defs><path d="M922.875481 546.126934c22.207306 0 37.11884 14.71954 37.11884 36.79885v349.173088c-3.775882 55.03828-40.95872 91.901128-96.63698 91.901128H160.6593C104.98104 1024 64.02232 983.553264 64.02232 932.098872V582.925784c0-22.07931 14.911534-36.79885 37.11884-36.79885 22.3993 0 37.246836 14.71954 37.246836 36.79885v349.173088c0 11.007656 7.423768 18.367426 22.335302 18.367426h706.345927c11.135652 0 18.55942 0 18.55942-22.07931V582.925784c0-22.07931 14.847536-36.79885 37.182838-36.79885zM560.006821 512.016c7.167776 0 11.967626 4.79985 11.967626 12.031624V569.6142c9.5997 4.79985 19.1994 9.5997 26.367176 14.39955l38.3988-23.99925a12.671604 12.671604 0 0 1 16.767476 4.79985l47.9985 84.029374c4.79985 7.167776 2.367926 14.39955-4.79985 16.767476l-38.3988 23.99925v28.7991l38.3988 23.99925c4.79985 2.367926 7.167776 9.5997 4.79985 16.831474l-47.9985 83.965376c-2.367926 4.79985-9.5997 7.167776-16.767476 4.79985l-38.3988-23.99925c-7.167776 4.79985-16.767476 12.031624-26.367176 14.39955v45.630574c0 7.167776-4.79985 11.967626-11.967626 11.967626h-95.997001c-7.167776 0-11.967626-4.79985-11.967626-12.031624V838.4058c-9.5997-4.79985-19.1994-9.5997-26.367176-14.39955l-38.3988 23.99925a12.671604 12.671604 0 0 1-16.767476-4.79985l-47.9985-84.029374c-4.79985-7.167776-2.367926-14.39955 4.79985-16.767476l38.3988-23.99925v-28.7991l-38.3988-23.99925c-7.167776-2.367926-9.5997-9.5997-4.79985-16.831474l47.9985-83.965376c2.367926-4.79985 9.5997-7.167776 16.767476-2.367926l38.3988 23.935252c7.167776-4.79985 16.767476-11.967626 26.367176-14.39955v-47.9985c0-7.167776 4.79985-11.967626 11.967626-11.967626h95.997001z m-17.855442 44.7986h-63.550015v34.942908a11.263648 11.263648 0 0 1-6.335802 10.303678c-10.55967 4.095872-21.11934 10.23968-29.631074 16.447486a13.823568 13.823568 0 0 1-12.735602 0l-28.15912-16.447486-31.807006 53.502328 28.223118 18.55942c4.223868 1.983938 6.3998 6.143808 4.223868 10.23968 0 6.143808-2.111934 10.23968-2.111934 16.447486 0 6.143808 0 10.23968 2.111934 16.447486 2.111934 4.095872 3.583888 12.7996-0.63998 14.847536l-31.807006 18.55942 31.743008 53.43833 31.807006-18.55942c4.223868-1.983938 4.927846-6.591794 9.151714-4.47986 8.447736 6.143808 19.071404 12.287616 29.631074 16.447486 4.223868 2.047936 6.3998 6.143808 6.3998 10.23968v44.990594h63.486017v-42.87866c0-4.15987 2.111934-8.255742 6.3998-10.303678 10.55967-4.095872 21.11934-10.23968 29.631074-16.447486a13.823568 13.823568 0 0 1 12.671604 0l31.743008 18.495422 31.807006-53.502328-31.807006-18.495422c-4.223868-4.095872-6.335802-8.255742-4.223868-12.351614 0-6.143808 2.111934-10.23968 2.111934-16.447486 0-6.143808 0-10.23968-2.111934-16.447486 0-4.095872 2.111934-8.255742 4.223868-10.23968l31.807006-18.55942-31.807006-53.502328-31.743008 18.55942a13.823568 13.823568 0 0 1-12.671604 0 136.059748 136.059748 0 0 0-29.695072-16.511484c-4.223868-4.095872-6.335802-8.191744-6.335802-12.351614V556.8146zM512.00832 640.012a63.998 63.998 0 1 1 0 127.996 63.998 63.998 0 0 1 0-127.996z m0 31.999a31.999 31.999 0 1 0 0 63.998 31.999 31.999 0 0 0 0-63.998zM579.654207 23.711259l431.34652 379.18815c14.655542 11.83963 18.303428 39.486766 3.647886 55.294272-14.591544 15.743508-36.47886 19.711384-51.1984 3.83988l-427.634636-371.1884c-11.007656-7.871754-32.95897-7.871754-43.902629 0L60.566428 469.969313c-7.35977 7.935752-14.71954 7.935752-22.015312 7.935752a32.446986 32.446986 0 0 1-29.183088-15.807506c-14.71954-15.807506-11.007656-43.454642 3.583888-55.294272L444.426432 23.775257c40.190744-31.67901 98.684916-31.67901 135.227775 0z" fill="#333333" p-id="2061"></path></svg>