<?xml version="1.0" standalone="no"?><!DOCTYPE svg PUBLIC "-//W3C//DTD SVG 1.1//EN" "http://www.w3.org/Graphics/SVG/1.1/DTD/svg11.dtd"><svg t="1621654296235" class="icon" viewBox="0 0 1024 1024" version="1.1" xmlns="http://www.w3.org/2000/svg" p-id="8463" xmlns:xlink="http://www.w3.org/1999/xlink" width="200" height="200"><defs><style type="text/css"></style></defs><path d="M898.2 546.8c6.3 6.1 14.6 9.4 23.4 9.4 9.3 0 17.9-3.7 24.4-10.4 12.9-13.4 12.4-34.8-1-47.7L527.9 98a33.573 33.573 0 0 0-46.7 0L64.1 498.1c-6.5 6.2-10.2 14.6-10.4 23.7-0.2 9 3.1 17.6 9.4 24.1 12.9 13.4 34.3 13.9 47.7 1l393.7-377.7 393.7 377.6z" p-id="8464"></path><path d="M487 868.5H227.5v-327c0-9.2-3.8-18.1-10.3-24.6-6.5-6.4-15-9.8-24-9.7-18.3 0.3-33.2 15.4-33.2 33.7V905c0 17 13.8 30.9 30.9 30.9h296.7c18.3 0 33.4-14.9 33.7-33.2 0.2-9-3.3-17.5-9.7-24-6.4-6.5-15.4-10.2-24.6-10.2zM834.8 710c23.5-25 36.7-58.1 36.7-92.7 0-74.7-60.8-135.5-135.5-135.5s-135.5 60.8-135.5 135.5c0 34.6 13.2 67.6 36.7 92.7-68 36.4-111.2 107.7-111.2 185.4 0 18.6 15.1 33.7 33.7 33.7s33.7-15.1 33.7-33.7c0-78.6 64-142.6 142.6-142.6s142.6 64 142.6 142.6c0 18.6 15.1 33.7 33.7 33.7S946 914 946 895.4c0.1-77.7-43.1-149-111.2-185.4zM804 617.4c0 37.5-30.5 68-68 68s-68-30.5-68-68 30.5-68 68-68 68 30.5 68 68z" p-id="8465"></path></svg>